<svg width="40" height="40" viewBox="0 0 40 40" fill="none" xmlns="http://www.w3.org/2000/svg">
<rect width="40" height="40" rx="7.34081" fill="#FAFAFA"/>
<path opacity="0.5" d="M25.035 21.5277C25.2374 21.4624 25.4496 21.4297 25.6618 21.4297H26.377C26.4325 21.3383 26.5305 21.273 26.6482 21.273C26.6482 21.273 26.7266 21.2567 26.815 21.0249C26.8509 20.9239 26.7888 20.7637 26.6452 20.5939C26.4003 20.2933 25.9563 19.9995 25.44 19.7908C25.3812 19.7712 25.3257 19.7518 25.2702 19.7287C24.3202 19.3892 23.5655 19.4706 23.3403 19.6569C23.5427 19.8038 23.6765 19.9901 23.7223 20.2089C23.7484 20.3332 23.7418 20.4603 23.7092 20.5843C23.7092 20.5874 23.7122 20.5909 23.7122 20.5909L23.7253 20.6562C23.7582 20.8063 23.7841 20.9435 23.8071 21.0678C24.0128 21.182 24.2348 21.29 24.4734 21.3714C24.6658 21.4397 24.8521 21.492 25.0349 21.5277H25.035Z" fill="#2B63FF"/>
<path opacity="0.5" d="M21.3771 21.4074C21.9029 21.2996 22.3927 21.0972 22.7192 20.8523C22.9673 20.6695 23.1077 20.4704 23.0818 20.3428C23.0424 20.15 22.6018 19.9508 21.9323 19.9508C21.6611 19.9508 21.3804 19.9837 21.0932 20.0422C20.5674 20.15 20.0776 20.3524 19.7512 20.5972C19.503 20.7801 19.3626 20.9792 19.3886 21.1098C19.4275 21.2992 19.8685 21.4983 20.538 21.4983C20.8086 21.4988 21.0895 21.4659 21.3771 21.4074Z" fill="#2B63FF"/>
<path opacity="0.5" d="M20.1161 22.7625C20.3512 22.4292 20.7399 22.2074 21.1774 22.2074H22.8593L22.8789 22.1979C22.9733 22.1358 23.1566 22.0215 23.238 21.9497C23.2476 21.8942 23.2511 21.7506 23.2021 21.4208L23.1825 21.3198C23.1564 21.3394 23.1335 21.3592 23.1074 21.3786C22.7023 21.6792 22.1343 21.9175 21.5105 22.0479C21.1772 22.1165 20.8507 22.1524 20.5373 22.1524C20.1357 22.1524 19.7862 22.0903 19.5019 21.9826L19.5738 22.4691C19.6232 22.5731 19.7995 22.6937 20.1162 22.7625L20.1161 22.7625Z" fill="#2B63FF"/>
<path opacity="0.5" d="M23.9074 22.2068L24.2306 21.9781C24.1163 21.9391 24.0053 21.8902 23.8943 21.8412C23.8974 22.0044 23.878 22.1185 23.8423 22.2068H23.9074Z" fill="#2B63FF"/>
<path d="M31.9928 24.3822C31.8035 24.1929 31.5488 24.0917 31.2776 24.0917C30.9999 24.0917 30.7387 24.1994 30.5463 24.3988L27.4832 27.5267C27.0881 27.9318 27.0946 28.5815 27.4962 28.9733L29.2793 30.7204C29.6678 31.0991 30.3471 31.0926 30.7258 30.7041L33.7922 27.5724C33.9815 27.3798 34.086 27.1219 34.0827 26.8476C34.0797 26.5734 33.9717 26.3152 33.7756 26.1259L31.9928 24.3822Z" fill="#2B63FF"/>
<path d="M28.4962 22.4683C28.235 22.2201 27.8922 22.083 27.5295 22.083H25.6616C25.3743 22.083 25.0901 22.1744 24.855 22.3412L24.2018 22.8017C24.1922 22.8083 24.1789 22.8083 24.1689 22.8148C24.1493 22.8244 24.1299 22.8344 24.1101 22.8409C24.0873 22.8474 24.0677 22.8505 24.0448 22.854C24.0353 22.854 24.0252 22.8605 24.012 22.8605H22.9639H22.9544H22.9513H22.9448H21.1781C20.822 22.8605 20.5347 23.1478 20.5347 23.5039C20.5347 23.86 20.822 24.1504 21.1781 24.1504H24.4338C24.6136 24.1504 24.7605 24.2973 24.7605 24.4768C24.7605 24.6566 24.6136 24.8035 24.4338 24.8035H21.1781C20.4628 24.8035 19.8815 24.2222 19.8815 23.5039C19.8815 23.4615 19.888 23.4225 19.8945 23.3796C19.506 23.2817 19.2187 23.1084 19.0553 22.8766C18.9965 22.8277 18.9543 22.7558 18.9443 22.6742L18.9347 22.6187L18.7518 22.5077C18.7423 22.5012 18.7323 22.4881 18.7225 22.4783C18.7094 22.4688 18.6931 22.4653 18.6835 22.4522L17.4687 21.1556C17.0343 20.692 16.303 20.6691 15.8424 21.1001C15.7738 21.1654 15.7346 21.2536 15.7346 21.345C15.7346 21.407 15.751 21.4951 15.8261 21.5737L18.2816 24.1926L20.2212 25.7634C20.7177 26.1649 21.3415 26.3839 21.9814 26.3839H25.1327C25.7695 26.3839 26.4029 26.5931 26.9157 26.9748L27.03 27.0597L30.0604 23.964L28.4962 22.4683Z" fill="#2B63FF"/>
<path d="M9.39897 14.0891C9.27817 13.9158 9.0788 13.8148 8.86658 13.8148C8.72924 13.8148 8.59886 13.8573 8.48786 13.9391L6.27059 15.5295C5.98002 15.7387 5.91146 16.1499 6.12367 16.4407L8.92232 20.3396C9.12474 20.6238 9.55263 20.6956 9.83647 20.4897L12.0502 18.8995C12.3408 18.6904 12.4094 18.279 12.2004 17.9884L9.39897 14.0891Z" fill="#2B63FF"/>
<path opacity="0.5" d="M24.0382 12.8354C23.7574 12.5546 23.4048 12.3652 23.016 12.2899C22.572 12.2016 22.1115 12.2703 21.7129 12.4758C21.5366 12.5703 21.3699 12.6915 21.2264 12.8349C21.1611 12.9002 21.1022 12.9688 21.0467 13.0441C21.1087 13.0345 21.1675 13.018 21.2295 13.0112L21.5497 12.9492C21.739 12.9133 21.9349 12.9033 22.131 12.9296L22.1765 12.9362C22.5261 12.9851 22.8589 13.132 23.1331 13.3706L23.3125 13.5306C23.3584 13.5695 23.3908 13.6185 23.4104 13.6775L23.4498 13.8079C23.4792 13.9156 23.4857 14.0236 23.4694 14.1084C23.4466 14.2913 23.329 14.4806 23.2311 14.5818L23.1168 14.6961C23.0713 14.7451 23.0189 14.7841 22.9699 14.8104L22.7316 14.9573C22.6861 14.9867 22.6336 15.0128 22.5716 15.0324L22.1665 15.1693C22.0523 15.2052 21.9478 15.2673 21.8594 15.3556L21.6372 15.5678C21.6307 15.5774 21.6241 15.5842 21.6176 15.5907L21.4576 15.7964C21.4511 15.806 21.4413 15.8127 21.4348 15.8225C21.7778 16.0837 22.1925 16.2276 22.6332 16.2276C23.1621 16.2276 23.6621 16.0219 24.0373 15.6462C24.8119 14.8698 24.8119 13.6093 24.0382 12.8354L24.0382 12.8354Z" fill="#2B63FF"/>
<path d="M18.97 16.1496L20.4753 15.7415C20.5798 15.7056 20.6745 15.6501 20.7531 15.588C20.7855 15.5619 20.8184 15.536 20.851 15.5032C20.8804 15.4738 20.9065 15.4444 20.9359 15.4052L21.1122 15.1764C21.1187 15.1699 21.1252 15.1634 21.1285 15.1569C21.1416 15.1438 21.1546 15.1275 21.1679 15.1144L21.4062 14.8857C21.563 14.7322 21.7558 14.6145 21.9613 14.5494L22.389 14.4025L22.6536 14.2392L22.7679 14.1217C22.7875 14.1021 22.8169 14.0466 22.8234 14.0303V13.9913L22.8138 13.9584L22.7061 13.864C22.5298 13.7105 22.3141 13.6126 22.0858 13.5832L22.0464 13.5767C21.9221 13.5636 21.7982 13.5671 21.6742 13.593L21.3379 13.6583C21.3283 13.6583 21.315 13.6613 21.305 13.6613C21.1026 13.6777 20.9065 13.7266 20.7271 13.7987L20.309 13.9685C20.2339 14.0013 20.1588 14.024 20.0609 14.0564L19.3851 14.2555C19.1563 14.3208 18.931 14.3565 18.7221 14.3565L17.9548 14.3761C17.8014 14.3826 17.6281 14.3141 17.5139 14.1933C17.3963 14.0725 17.3376 13.909 17.3471 13.7393L17.4157 12.5115C17.4386 12.1719 17.6051 11.865 17.8763 11.6624L18.5651 11.1564C18.6631 11.0813 18.7743 11.0321 18.8916 11.0062L20.1451 10.7189C20.3543 10.6669 20.5861 10.7254 20.7491 10.8788L21.4578 11.5386C21.5264 11.6006 21.5753 11.679 21.6145 11.7704C21.9282 11.6594 22.4153 11.5876 22.7481 11.6037L22.745 11.3945C22.745 11.2378 22.6895 11.0874 22.5916 10.96L21.3148 9.36311C21.1124 9.12151 20.8118 8.99091 20.5016 9.00049L16.0606 9.31065C16.051 9.31065 16.0312 9.3137 16.0212 9.32371L9.99953 13.8051L12.6412 17.4821L12.6673 17.4791C12.6769 17.4791 12.6902 17.476 12.7032 17.476L14.2316 17.4401C14.4114 17.4271 14.6038 17.3946 14.803 17.3487L16.2334 17.019L18.97 16.1496Z" fill="#2B63FF"/>
</svg>
