<svg width="40" height="40" viewBox="0 0 40 40" fill="none" xmlns="http://www.w3.org/2000/svg">
<rect width="40" height="40" rx="7.34081" fill="#FAFAFA"/>
<path opacity="0.5" fill-rule="evenodd" clip-rule="evenodd" d="M11.8113 19.9318V30.6033H9.16975V17.079L11.8113 19.9318ZM11.283 20.2488L9.80383 18.5582V29.9693H11.283V20.2486V20.2488Z" fill="#2B63FF"/>
<path opacity="0.5" fill-rule="evenodd" clip-rule="evenodd" d="M16.5655 25.1089V30.6033H13.924V22.2561L16.5655 25.1089ZM15.9316 25.3201L14.4524 23.7353V29.9693H15.9316V25.3201Z" fill="#2B63FF"/>
<path opacity="0.5" fill-rule="evenodd" clip-rule="evenodd" d="M21.3206 19.0862V30.6033H18.679V22.7846L21.3206 19.0862ZM20.6867 20.8824L19.2075 22.8899V29.9691H20.6867V20.8824Z" fill="#2B63FF"/>
<path opacity="0.5" fill-rule="evenodd" clip-rule="evenodd" d="M25.9699 21.939V30.6033H23.3284V19.8262L25.9699 21.9394V21.939ZM25.4417 22.256L23.9625 21.0938V29.9693H25.4417V22.256Z" fill="#2B63FF"/>
<path opacity="0.5" fill-rule="evenodd" clip-rule="evenodd" d="M30.7241 18.875V30.6033H28.0826V22.5734L30.7241 18.875ZM30.1958 20.6712L28.7166 22.7845V29.9693H30.1958V20.6712Z" fill="#2B63FF"/>
<path d="M8.11303 10.4223L16.4602 19.509L20.1583 14.3319L21.0036 13.0639L22.1659 14.015L26.9207 17.9243L30.6188 12.6415L29.2452 11.6906L34 10V15.0716L32.8378 14.2263L28.2942 20.777L27.4489 22.045L26.2866 21.0941L21.5318 17.1846L17.7281 22.5733L16.6715 23.9469L15.5091 22.679L6 12.3242L8.11303 10.4223Z" fill="#2B63FF"/>
</svg>
