<svg width="40" height="40" viewBox="0 0 40 40" fill="none" xmlns="http://www.w3.org/2000/svg">
<rect width="40" height="40" rx="7.34081" fill="#FAFAFA"/>
<path d="M13.8345 16.6461V22.7501C13.834 22.8868 13.9067 23.0132 14.025 23.0816L19.3095 26.1333C19.4282 26.1982 19.5718 26.1982 19.6905 26.1333L24.9749 23.0816C25.0933 23.0132 25.1659 22.8868 25.1654 22.7501V16.6461C25.1659 16.5096 25.0933 16.383 24.9749 16.3148L19.6905 13.2628C19.5718 13.198 19.4282 13.198 19.3095 13.2628L14.025 16.3148C13.9067 16.383 13.834 16.5096 13.8345 16.6461ZM19.5 14.0325L24.0224 16.6461L19.5 19.2599L14.9776 16.6461L19.5 14.0325ZM14.5965 17.3054L19.119 19.919V25.1425L14.5965 22.5289V17.3054Z" fill="#2B63FF"/>
<path d="M30.8181 15.6106C30.6693 15.462 30.4281 15.462 30.2793 15.6106L28.486 17.4041H26.3576C26.1472 17.4041 25.9766 17.5747 25.9766 17.7851C25.9766 17.9955 26.1472 18.1661 26.3576 18.1661H28.6436C28.7447 18.1661 28.8416 18.126 28.9131 18.0545L30.8181 16.1495C30.9668 16.0007 30.9668 15.7595 30.8181 15.6107L30.8181 15.6106Z" fill="#2B63FF"/>
<path d="M26.3576 21.9764H28.4859L30.2794 23.7698H30.2792C30.4287 23.9142 30.6664 23.912 30.8133 23.7651C30.9603 23.6181 30.9625 23.3805 30.8181 23.231L28.9131 21.3259C28.8416 21.2545 28.7447 21.2144 28.6436 21.2144H26.3576C26.1472 21.2144 25.9766 21.385 25.9766 21.5954C25.9766 21.8058 26.1472 21.9764 26.3576 21.9764L26.3576 21.9764Z" fill="#2B63FF"/>
<path d="M27.8823 19.3092C27.6719 19.3092 27.5013 19.4798 27.5013 19.6902C27.5013 19.9006 27.6719 20.0712 27.8823 20.0712H30.5494C30.7598 20.0712 30.9304 19.9006 30.9304 19.6902C30.9304 19.4798 30.7598 19.3092 30.5494 19.3092H27.8823Z" fill="#2B63FF"/>
<path d="M12.6414 17.4043H10.5131L8.71976 15.6108C8.57025 15.4664 8.33263 15.4686 8.18566 15.6156C8.03868 15.7625 8.03649 16.0001 8.18089 16.1497L10.0859 18.0547C10.1574 18.1261 10.2543 18.1663 10.3553 18.1663H12.6414C12.8518 18.1663 13.0224 17.9957 13.0224 17.7853C13.0224 17.5749 12.8518 17.4043 12.6414 17.4043L12.6414 17.4043Z" fill="#2B63FF"/>
<path d="M12.6414 21.2142H10.3553C10.2543 21.2142 10.1573 21.2544 10.0859 21.3258L8.18089 23.2308C8.03648 23.3804 8.03869 23.618 8.18565 23.7649C8.33261 23.9119 8.57022 23.9141 8.71975 23.7697L10.513 21.9762H12.6414C12.8518 21.9762 13.0224 21.8056 13.0224 21.5952C13.0224 21.3848 12.8518 21.2142 12.6414 21.2142L12.6414 21.2142Z" fill="#2B63FF"/>
<path d="M12.6421 19.3092H8.45103C8.24063 19.3092 8.07002 19.4798 8.07002 19.6902C8.07002 19.9006 8.24063 20.0712 8.45103 20.0712H12.6421C12.8525 20.0712 13.0231 19.9006 13.0231 19.6902C13.0231 19.4798 12.8525 19.3092 12.6421 19.3092Z" fill="#2B63FF"/>
<path opacity="0.5" d="M25.2572 14.28C25.473 14.491 25.763 14.6093 26.065 14.6093C26.3669 14.6093 26.6569 14.491 26.8728 14.28C27.4706 13.6654 29.2998 11.8569 29.2998 11.8569C29.2998 11.8569 29.461 12.0157 29.5131 12.0701C29.6532 12.2054 29.8393 12.2822 30.0341 12.2855C30.2287 12.2885 30.4173 12.2178 30.5617 12.0873C30.7063 11.9569 30.7957 11.7764 30.8124 11.5825C30.8459 10.889 30.9461 9.50446 30.9992 8.81255H30.999C31.0097 8.59416 30.9277 8.38154 30.7731 8.22694C30.6185 8.07233 30.4059 7.99034 30.1875 8.00105C29.4955 8.05514 28.111 8.15533 27.4176 8.18782V8.18765C27.2237 8.20432 27.0432 8.29378 26.9127 8.43836C26.7823 8.58277 26.7115 8.7714 26.7146 8.96598C26.7178 9.16073 26.7947 9.34681 26.9299 9.48697C26.9843 9.53919 27.1432 9.70027 27.1432 9.70027L24.7201 12.1273C24.5061 12.3416 24.3859 12.6321 24.3859 12.9351C24.3859 13.238 24.5061 13.5285 24.7201 13.7428C24.7201 13.7428 25.1244 14.1444 25.2572 14.28L25.2572 14.28Z" fill="#2B63FF"/>
<path opacity="0.5" d="M9.48678 12.07C9.539 12.0156 9.70008 11.8567 9.70008 11.8567C9.70008 11.8567 11.5236 13.6681 12.1232 14.2798H12.1234C12.3397 14.4914 12.6302 14.6098 12.933 14.6098C13.2356 14.6098 13.5261 14.4914 13.7426 14.2798C13.8757 14.1443 14.2798 13.7427 14.2798 13.7427C14.4938 13.5284 14.614 13.2378 14.614 12.9349C14.614 12.632 14.4938 12.3415 14.2798 12.1271L11.8567 9.70012C11.8567 9.70012 12.0156 9.53887 12.07 9.48682C12.2052 9.34667 12.2821 9.16059 12.2853 8.96583C12.2884 8.77124 12.2176 8.58261 12.0872 8.43821C11.9567 8.29363 11.7762 8.20416 11.5823 8.1875C10.8888 8.15518 9.5043 8.05482 8.81239 8.00073V8.0009C8.59417 7.99036 8.38155 8.07251 8.22713 8.22712C8.07251 8.38157 7.99036 8.59418 8.0009 8.81239C8.05159 9.50465 8.15518 10.8889 8.18767 11.5823H8.1875C8.20433 11.7762 8.29397 11.9563 8.43838 12.0868C8.58279 12.2171 8.77142 12.2879 8.96582 12.2848C9.16041 12.2817 9.34666 12.2049 9.48682 12.07L9.48678 12.07Z" fill="#2B63FF"/>
<path opacity="0.5" d="M24.7201 25.6379C24.5061 25.8522 24.3859 26.1427 24.3859 26.4456C24.3859 26.7486 24.5061 27.0391 24.7201 27.2534L27.1432 29.6804C27.1432 29.6804 26.9843 29.8417 26.9299 29.8937C26.7947 30.0339 26.7178 30.22 26.7146 30.4147C26.7115 30.6093 26.7823 30.798 26.9127 30.9423C27.0432 31.0869 27.2236 31.1764 27.4176 31.1931C28.111 31.2266 30.1875 31.3798 30.1875 31.3798V31.3797C30.4061 31.3912 30.6192 31.3094 30.774 31.1546C30.9288 30.9998 31.0106 30.7867 30.999 30.5681C30.999 30.5681 30.8466 28.4916 30.8122 27.7982H30.8124C30.7957 27.6043 30.7063 27.4238 30.5617 27.2934C30.4173 27.1629 30.2287 27.0921 30.0341 27.0952C29.8393 27.0984 29.6533 27.1753 29.5131 27.3105C29.4609 27.365 29.2998 27.5238 29.2998 27.5238L26.8765 25.1007C26.6585 24.8925 26.3685 24.7764 26.0669 24.7764C25.7655 24.7764 25.4755 24.8925 25.2572 25.1007L24.7201 25.6379Z" fill="#2B63FF"/>
<path opacity="0.5" d="M8.81261 31.3795C8.81261 31.3795 10.8891 31.2271 11.5825 31.1927V31.1929C11.7764 31.1762 11.9569 31.0868 12.0874 30.9422C12.2178 30.7978 12.2886 30.6092 12.2855 30.4146C12.2823 30.2198 12.2054 30.0337 12.0702 29.8936C12.0158 29.8414 11.8569 29.6803 11.8569 29.6803L14.28 27.2533C14.494 27.0389 14.6142 26.7484 14.6142 26.4455C14.6142 26.1426 14.494 25.852 14.28 25.6377L13.7429 25.1006C13.5253 24.8925 13.236 24.7764 12.9351 24.7764C12.634 24.7764 12.3447 24.8925 12.1273 25.1006L9.70029 27.5237C9.70029 27.5237 9.53904 27.3648 9.48699 27.3104C9.34684 27.1755 9.16059 27.0986 8.966 27.0955C8.77158 27.0925 8.58295 27.1632 8.43856 27.2935C8.29415 27.424 8.20451 27.6041 8.18767 27.798C8.1545 28.4915 8.00091 30.568 8.00091 30.568H8.00108C7.98951 30.7865 8.07133 30.9997 8.22611 31.1544C8.3809 31.3092 8.59402 31.391 8.8126 31.3795L8.81261 31.3795Z" fill="#2B63FF"/>
<path d="M26.7386 19.6902C26.7386 19.9006 26.568 20.0712 26.3576 20.0712C26.1472 20.0712 25.9766 19.9006 25.9766 19.6902C25.9766 19.4798 26.1472 19.3092 26.3576 19.3092C26.568 19.3092 26.7386 19.4798 26.7386 19.6902Z" fill="#2B63FF"/>
</svg>
