<svg width="40" height="40" viewBox="0 0 40 40" fill="none" xmlns="http://www.w3.org/2000/svg">
<rect width="40" height="40" rx="7.34081" fill="#FAFAFA"/>
<path d="M10.4375 11.4375C9.47609 11.4375 8.55406 11.8194 7.87424 12.4992C7.19442 13.1791 6.8125 14.1011 6.8125 15.0625V16.875H32.1875V15.0625C32.1875 14.1011 31.8056 13.1791 31.1258 12.4992C30.4459 11.8194 29.5239 11.4375 28.5625 11.4375H10.4375ZM6.8125 25.9375V18.6875H32.1875V25.9375C32.1875 26.8989 31.8056 27.8209 31.1258 28.5008C30.4459 29.1806 29.5239 29.5625 28.5625 29.5625H10.4375C9.47609 29.5625 8.55406 29.1806 7.87424 28.5008C7.19442 27.8209 6.8125 26.8989 6.8125 25.9375ZM24.0312 24.125C23.7909 24.125 23.5604 24.2205 23.3904 24.3904C23.2205 24.5604 23.125 24.7909 23.125 25.0312C23.125 25.2716 23.2205 25.5021 23.3904 25.6721C23.5604 25.842 23.7909 25.9375 24.0312 25.9375H27.6562C27.8966 25.9375 28.1271 25.842 28.2971 25.6721C28.467 25.5021 28.5625 25.2716 28.5625 25.0312C28.5625 24.7909 28.467 24.5604 28.2971 24.3904C28.1271 24.2205 27.8966 24.125 27.6562 24.125H24.0312Z" fill="#2B63FF"/>
</svg>
