<svg width="40" height="40" viewBox="0 0 40 40" fill="none" xmlns="http://www.w3.org/2000/svg">
<rect width="40" height="40" rx="7.34081" fill="#FAFAFA"/>
<path d="M29.2156 12.5735C26.0831 12.3366 23.135 10.9678 20.9239 8.75675L20.3448 8.17765C20.108 7.94078 19.6867 7.94078 19.4499 8.17765L18.8708 8.75675C16.6597 10.9678 13.7115 12.3367 10.5791 12.5735C10.2633 12.5998 10 12.8631 10 13.2053V16.5219C10 23.3132 13.6851 29.6044 19.5815 32.921C19.6867 32.9737 19.7921 33 19.8973 33C20.0025 33 20.1079 32.9737 20.2131 32.921C26.1358 29.578 29.7946 23.3132 29.7946 16.5219V13.1789C29.7946 12.8631 29.5316 12.5998 29.2156 12.5735ZM16.4227 20.3914C16.4227 18.4699 17.9757 16.9167 19.8974 16.9167C21.8189 16.9167 23.3721 18.4697 23.3721 20.3914C23.3721 22.3129 21.8191 23.8661 19.8974 23.8661C17.9759 23.8659 16.4227 22.3129 16.4227 20.3914ZM11.2634 13.758C14.4748 13.3633 17.4756 11.9155 19.792 9.62526L19.8973 9.52005V15.6796C17.2912 15.6796 15.1855 17.7855 15.1855 20.3914V20.4966L11.737 20.4968C11.4475 19.2069 11.2633 17.8645 11.2633 16.5221L11.2634 13.758ZM19.8973 31.6576V25.1295C22.4769 25.1295 24.5565 23.0763 24.6091 20.4967L28.0575 20.4965C26.9783 25.1293 24.0826 29.1832 19.8973 31.6576Z" fill="#2B63FF"/>
<path opacity="0.5" d="M21.8714 18.8646C21.6345 18.654 21.2923 18.6803 21.0817 18.9173L19.4233 20.8126L18.5811 19.9437C18.3705 19.7331 18.002 19.7331 17.7913 19.9437C17.5807 20.1543 17.5807 20.5228 17.7913 20.7335L19.0548 21.9969C19.16 22.1021 19.2916 22.1548 19.4495 22.1548H19.4758C19.6337 22.1548 19.7654 22.0759 19.8706 21.9705L21.9237 19.6277C22.1347 19.4173 22.1083 19.0488 21.8714 18.8647L21.8714 18.8646Z" fill="#2B63FF"/>
</svg>
