<svg width="40" height="40" viewBox="0 0 40 40" fill="none" xmlns="http://www.w3.org/2000/svg">
<rect width="40" height="40" rx="7.34081" fill="#FAFAFA"/>
<path d="M30.2667 10.8H6V10.3333C6.00063 9.71477 6.24687 9.12165 6.68416 8.68416C7.12166 8.24687 7.71477 8.00064 8.33333 8H27.9333C28.5519 8.00063 29.145 8.24687 29.5825 8.68416C30.0198 9.12166 30.266 9.71477 30.2667 10.3333V10.8ZM9.73333 21.0667H13.4667V18.2667H9.73333V21.0667ZM30.2667 11.7333H6V14.5333H30.2667V11.7333ZM20 19.6667V24.3333C20 24.4921 20.0075 24.6463 20.0156 24.8H8.33349C7.71493 24.7994 7.12181 24.5531 6.68432 24.1158C6.24703 23.6783 6.0008 23.0852 6.00016 22.4667V15.4667H30.2668V17.6513C29.5708 17.3998 28.9062 17.0687 28.2862 16.6648C28.0478 16.4936 27.762 16.4013 27.4685 16.4008C27.1749 16.4006 26.8889 16.4923 26.6501 16.6629C25.0828 17.6742 23.2649 18.2294 21.4001 18.2667C21.0289 18.2671 20.673 18.4148 20.4105 18.6771C20.1482 18.9396 20.0005 19.2954 20.0001 19.6667L20 19.6667ZM14.4 17.8C14.4 17.6763 14.3508 17.5575 14.2633 17.47C14.1758 17.3825 14.0571 17.3333 13.9333 17.3333H9.26667C9.14292 17.3333 9.02417 17.3825 8.93667 17.47C8.84917 17.5575 8.8 17.6763 8.8 17.8V21.5333C8.8 21.6571 8.84917 21.7758 8.93667 21.8633C9.02417 21.9508 9.14292 22 9.26667 22H13.9333C14.0571 22 14.1758 21.9508 14.2633 21.8633C14.3508 21.7758 14.4 21.6571 14.4 21.5333V17.8ZM34 19.6667V24.3333C34 30.1061 27.6741 32.2235 27.6107 32.2437C27.5171 32.2739 27.4163 32.2739 27.3228 32.2437C27.259 32.2231 20.9334 30.1058 20.9334 24.3333V19.6667C20.9334 19.5429 20.9826 19.4242 21.0701 19.3367C21.1576 19.2492 21.2763 19.2 21.4001 19.2C23.4603 19.1667 25.4688 18.5504 27.1926 17.4223C27.3564 17.3046 27.5768 17.3046 27.7405 17.4223C29.4645 18.5504 31.473 19.1667 33.533 19.2C33.6568 19.2 33.7755 19.2492 33.863 19.3367C33.9505 19.4242 33.9997 19.5429 33.9997 19.6667H34ZM31.0634 22.6033C30.9759 22.5158 30.8571 22.4666 30.7334 22.4666C30.6096 22.4666 30.4909 22.5158 30.4034 22.6033L26.5334 26.4735L24.5301 24.4702V24.47C24.3474 24.2898 24.0536 24.2906 23.8722 24.4721C23.6907 24.6535 23.6899 24.9473 23.8701 25.13L26.2034 27.4633C26.2909 27.5508 26.4097 27.6 26.5334 27.6C26.6572 27.6 26.7759 27.5508 26.8634 27.4633L31.0634 23.2633C31.1509 23.1758 31.2001 23.0571 31.2001 22.9333C31.2001 22.8096 31.1509 22.6908 31.0634 22.6033L31.0634 22.6033Z" fill="#2B63FF"/>
</svg>
