<svg width="40" height="40" viewBox="0 0 40 40" fill="none" xmlns="http://www.w3.org/2000/svg">
<rect width="40" height="40" rx="7.34081" fill="#FAFAFA"/>
<path d="M32.2594 21.9511C32.1362 21.5639 31.8959 21.2243 31.5714 20.9796C31.247 20.7349 30.8546 20.5968 30.4484 20.5848C30.228 20.5805 30.0092 20.6211 29.8049 20.7039L20.9957 23.5476H20.8845C20.727 23.5453 20.5813 23.4639 20.4965 23.3313C20.4118 23.1987 20.3994 23.0322 20.4634 22.8884C20.6047 22.6104 20.6783 22.3027 20.6779 21.9908C20.6758 21.522 20.5093 21.0688 20.2074 20.7103C19.9054 20.3518 19.4873 20.1106 19.0258 20.0287C17.9191 19.8443 16.7906 20.195 15.9833 20.9739L13.8465 23.5636H12.7106C12.6254 23.2494 12.4392 22.9721 12.1808 22.774C11.9225 22.5759 11.6062 22.4681 11.2808 22.4674H9.49349C9.0988 22.4674 8.72006 22.6236 8.44027 22.902C8.16046 23.1802 8.00213 23.5581 8 23.9527V30.5064C8 30.9025 8.15746 31.2824 8.43743 31.5625C8.71758 31.8425 9.09738 31.9999 9.49352 31.9999H11.2808C11.6741 31.9978 12.0507 31.8405 12.3287 31.5625C12.6069 31.2843 12.764 30.9077 12.7662 30.5144H23.1804C23.8572 30.5123 24.5121 30.2735 25.0312 29.8392L31.7515 24.1516C32.0526 23.8819 32.2631 23.5259 32.354 23.1319C32.4449 22.7381 32.4121 22.3256 32.2598 21.9513L32.2594 21.9511ZM9.58841 24.0562H11.1771V30.411H9.58841V24.0562Z" fill="#2B63FF"/>
<path opacity="0.5" d="M29.115 9.55786C28.5278 8.55326 27.727 8 26.8583 8H24.5288C23.6601 8 22.8593 8.55326 22.2721 9.55786C21.6849 10.5625 21.4228 11.7369 21.4228 13.0473C21.4228 14.3576 21.7237 15.6 22.2721 16.5367C22.8205 17.4733 23.6601 18.0945 24.5288 18.0945H26.8583C27.727 18.0945 28.5278 17.5413 29.115 16.5367C29.7022 15.5321 29.9643 14.3576 29.9643 13.0473C29.9643 11.7369 29.6634 10.4945 29.115 9.55786ZM29.1781 12.659H27.6251C27.5863 11.8243 27.4261 11.0235 27.1543 10.3295H28.6394C28.9354 10.9798 29.1344 11.7854 29.1781 12.659ZM28.1783 9.553H26.7855C26.6212 9.27311 26.4258 9.01263 26.2031 8.7765H26.8583C27.3436 8.7765 27.7998 9.06769 28.1783 9.553ZM26.8583 17.318H26.2031C26.4258 17.0819 26.6212 16.8214 26.7855 16.5415H28.1783C27.7998 17.0268 27.3436 17.318 26.8583 17.318ZM28.6394 15.765H27.1543C27.4261 15.071 27.5863 14.2702 27.6251 13.4355H29.1781C29.1344 14.3091 28.9354 15.1147 28.6394 15.765Z" fill="#2B63FF"/>
</svg>
