<svg width="40" height="40" viewBox="0 0 40 40" fill="none" xmlns="http://www.w3.org/2000/svg">
<rect width="40" height="40" rx="7.34081" fill="#FAFAFA"/>
<g clip-path="url(#clip0_67_605)">
<path d="M13.25 25.75H24.1875V28.875H13.25C11.5239 28.875 10.125 27.4736 10.125 25.75V13.25H8.5625C7.69971 13.25 7 12.5518 7 11.6875C7 10.8247 7.69971 10.125 8.5625 10.125H10.125V8.5625C10.125 7.69971 10.8247 7 11.6875 7C12.5518 7 13.25 7.69971 13.25 8.5625V25.75ZM25.75 13.25H14.8125V10.125H25.75C27.4736 10.125 28.875 11.5239 28.875 13.25V25.75H30.4375C31.3018 25.75 32 26.4482 32 27.3125C32 28.1768 31.3018 28.875 30.4375 28.875H28.875V30.4375C28.875 31.3018 28.1768 32 27.3125 32C26.4482 32 25.75 31.3018 25.75 30.4375V13.25Z" fill="#2B63FF"/>
</g>
<defs>
<clipPath id="clip0_67_605">
<rect width="25" height="25" fill="white" transform="translate(7 7)"/>
</clipPath>
</defs>
</svg>
