<svg width="468" height="33" viewBox="0 0 468 33" fill="none" xmlns="http://www.w3.org/2000/svg">
<rect width="468" height="33" rx="16.5" fill="#2B63FF"/>
<path d="M21.298 21.168C20.5793 21.168 19.9447 21.0467 19.394 20.804C18.8433 20.552 18.4093 20.1973 18.092 19.74C17.7747 19.2733 17.6113 18.7087 17.602 18.046H19.492C19.5107 18.5033 19.674 18.8907 19.982 19.208C20.2993 19.516 20.7333 19.67 21.284 19.67C21.76 19.67 22.138 19.558 22.418 19.334C22.698 19.1007 22.838 18.7927 22.838 18.41C22.838 18.0087 22.712 17.696 22.46 17.472C22.2173 17.248 21.8907 17.066 21.48 16.926C21.0693 16.786 20.6307 16.6367 20.164 16.478C19.408 16.2167 18.8293 15.8807 18.428 15.47C18.036 15.0593 17.84 14.5133 17.84 13.832C17.8307 13.2533 17.966 12.7587 18.246 12.348C18.5353 11.928 18.9273 11.606 19.422 11.382C19.9167 11.1487 20.486 11.032 21.13 11.032C21.7833 11.032 22.3573 11.1487 22.852 11.382C23.356 11.6153 23.748 11.942 24.028 12.362C24.3173 12.782 24.4713 13.2813 24.49 13.86H22.572C22.5627 13.5147 22.4273 13.2113 22.166 12.95C21.914 12.6793 21.5593 12.544 21.102 12.544C20.71 12.5347 20.3787 12.6327 20.108 12.838C19.8467 13.034 19.716 13.3233 19.716 13.706C19.716 14.0327 19.8187 14.294 20.024 14.49C20.2293 14.6767 20.5093 14.8353 20.864 14.966C21.2187 15.0967 21.6247 15.2367 22.082 15.386C22.5673 15.554 23.0107 15.75 23.412 15.974C23.8133 16.198 24.1353 16.4967 24.378 16.87C24.6207 17.234 24.742 17.7053 24.742 18.284C24.742 18.7973 24.6113 19.2733 24.35 19.712C24.0887 20.1507 23.7013 20.5053 23.188 20.776C22.6747 21.0373 22.0447 21.168 21.298 21.168ZM29.3575 21C28.6295 21 28.0462 20.8227 27.6075 20.468C27.1688 20.1133 26.9495 19.4833 26.9495 18.578V15.554H25.7595V14.056H26.9495L27.1595 12.194H28.7415V14.056H30.6175V15.554H28.7415V18.592C28.7415 18.928 28.8115 19.1613 28.9515 19.292C29.1008 19.4133 29.3528 19.474 29.7075 19.474H30.5755V21H29.3575ZM34.5501 21.168C33.9528 21.168 33.4628 21.0747 33.0801 20.888C32.6974 20.692 32.4128 20.4353 32.2261 20.118C32.0394 19.8007 31.9461 19.4507 31.9461 19.068C31.9461 18.424 32.1981 17.9013 32.7021 17.5C33.2061 17.0987 33.9621 16.898 34.9701 16.898H36.7341V16.73C36.7341 16.254 36.5988 15.904 36.3281 15.68C36.0574 15.456 35.7214 15.344 35.3201 15.344C34.9561 15.344 34.6388 15.4327 34.3681 15.61C34.0974 15.778 33.9294 16.03 33.8641 16.366H32.1141C32.1608 15.862 32.3288 15.4233 32.6181 15.05C32.9168 14.6767 33.2994 14.392 33.7661 14.196C34.2328 13.9907 34.7554 13.888 35.3341 13.888C36.3234 13.888 37.1028 14.1353 37.6721 14.63C38.2414 15.1247 38.5261 15.8247 38.5261 16.73V21H37.0001L36.8321 19.88C36.6268 20.2533 36.3374 20.5613 35.9641 20.804C35.6001 21.0467 35.1288 21.168 34.5501 21.168ZM34.9561 19.768C35.4694 19.768 35.8661 19.6 36.1461 19.264C36.4354 18.928 36.6174 18.5127 36.6921 18.018H35.1661C34.6901 18.018 34.3494 18.1067 34.1441 18.284C33.9388 18.452 33.8361 18.662 33.8361 18.914C33.8361 19.1847 33.9388 19.3947 34.1441 19.544C34.3494 19.6933 34.6201 19.768 34.9561 19.768ZM40.2362 21V10.92H42.0282V16.87L44.4922 14.056H46.6202L43.7782 17.22L47.0822 21H44.8422L42.0282 17.514V21H40.2362ZM50.993 21.168C50.293 21.168 49.6723 21.0187 49.131 20.72C48.5897 20.4213 48.165 20.0013 47.857 19.46C47.549 18.9187 47.395 18.2933 47.395 17.584C47.395 16.8653 47.5443 16.226 47.843 15.666C48.151 15.106 48.571 14.672 49.103 14.364C49.6443 14.0467 50.279 13.888 51.007 13.888C51.6883 13.888 52.2903 14.0373 52.813 14.336C53.3357 14.6347 53.7417 15.0453 54.031 15.568C54.3297 16.0813 54.479 16.6553 54.479 17.29C54.479 17.3927 54.4743 17.5 54.465 17.612C54.465 17.724 54.4603 17.8407 54.451 17.962H49.173C49.2103 18.5033 49.397 18.928 49.733 19.236C50.0783 19.544 50.4937 19.698 50.979 19.698C51.343 19.698 51.6463 19.6187 51.889 19.46C52.141 19.292 52.3277 19.0773 52.449 18.816H54.269C54.1383 19.2547 53.919 19.656 53.611 20.02C53.3123 20.3747 52.939 20.6547 52.491 20.86C52.0523 21.0653 51.553 21.168 50.993 21.168ZM51.007 15.344C50.5683 15.344 50.181 15.47 49.845 15.722C49.509 15.9647 49.2943 16.338 49.201 16.842H52.659C52.631 16.3847 52.463 16.0207 52.155 15.75C51.847 15.4793 51.4643 15.344 51.007 15.344ZM61.7161 21.168C61.1188 21.168 60.6288 21.0747 60.2461 20.888C59.8634 20.692 59.5788 20.4353 59.3921 20.118C59.2054 19.8007 59.1121 19.4507 59.1121 19.068C59.1121 18.424 59.3641 17.9013 59.8681 17.5C60.3721 17.0987 61.1281 16.898 62.1361 16.898H63.9001V16.73C63.9001 16.254 63.7648 15.904 63.4941 15.68C63.2234 15.456 62.8874 15.344 62.4861 15.344C62.1221 15.344 61.8048 15.4327 61.5341 15.61C61.2634 15.778 61.0954 16.03 61.0301 16.366H59.2801C59.3268 15.862 59.4948 15.4233 59.7841 15.05C60.0828 14.6767 60.4654 14.392 60.9321 14.196C61.3988 13.9907 61.9214 13.888 62.5001 13.888C63.4894 13.888 64.2688 14.1353 64.8381 14.63C65.4074 15.1247 65.6921 15.8247 65.6921 16.73V21H64.1661L63.9981 19.88C63.7928 20.2533 63.5034 20.5613 63.1301 20.804C62.7661 21.0467 62.2948 21.168 61.7161 21.168ZM62.1221 19.768C62.6354 19.768 63.0321 19.6 63.3121 19.264C63.6014 18.928 63.7834 18.5127 63.8581 18.018H62.3321C61.8561 18.018 61.5154 18.1067 61.3101 18.284C61.1048 18.452 61.0021 18.662 61.0021 18.914C61.0021 19.1847 61.1048 19.3947 61.3101 19.544C61.5154 19.6933 61.7861 19.768 62.1221 19.768ZM67.4022 21V14.056H68.9842L69.1242 15.232C69.3389 14.8213 69.6469 14.4947 70.0482 14.252C70.4589 14.0093 70.9395 13.888 71.4902 13.888C72.3489 13.888 73.0162 14.1587 73.4922 14.7C73.9682 15.2413 74.2062 16.0347 74.2062 17.08V21H72.4142V17.248C72.4142 16.6507 72.2929 16.1933 72.0502 15.876C71.8075 15.5587 71.4295 15.4 70.9162 15.4C70.4122 15.4 69.9969 15.5773 69.6702 15.932C69.3529 16.2867 69.1942 16.7813 69.1942 17.416V21H67.4022ZM79.1118 21.168C78.4584 21.168 77.8751 21.0093 77.3618 20.692C76.8484 20.3747 76.4424 19.9407 76.1438 19.39C75.8451 18.8393 75.6958 18.214 75.6958 17.514C75.6958 16.814 75.8451 16.1933 76.1438 15.652C76.4424 15.1013 76.8484 14.672 77.3618 14.364C77.8751 14.0467 78.4584 13.888 79.1118 13.888C79.6344 13.888 80.0918 13.986 80.4838 14.182C80.8758 14.378 81.1931 14.6533 81.4358 15.008V10.92H83.2278V21H81.6318L81.4358 20.006C81.2118 20.314 80.9131 20.5847 80.5398 20.818C80.1758 21.0513 79.6998 21.168 79.1118 21.168ZM79.4898 19.6C80.0684 19.6 80.5398 19.4087 80.9038 19.026C81.2771 18.634 81.4638 18.1347 81.4638 17.528C81.4638 16.9213 81.2771 16.4267 80.9038 16.044C80.5398 15.652 80.0684 15.456 79.4898 15.456C78.9204 15.456 78.4491 15.6473 78.0758 16.03C77.7024 16.4127 77.5158 16.9073 77.5158 17.514C77.5158 18.1207 77.7024 18.62 78.0758 19.012C78.4491 19.404 78.9204 19.6 79.4898 19.6ZM91.7625 21.168C91.0625 21.168 90.4418 21.0187 89.9005 20.72C89.3592 20.4213 88.9345 20.0013 88.6265 19.46C88.3185 18.9187 88.1645 18.2933 88.1645 17.584C88.1645 16.8653 88.3138 16.226 88.6125 15.666C88.9205 15.106 89.3405 14.672 89.8725 14.364C90.4138 14.0467 91.0485 13.888 91.7765 13.888C92.4578 13.888 93.0598 14.0373 93.5825 14.336C94.1052 14.6347 94.5112 15.0453 94.8005 15.568C95.0992 16.0813 95.2485 16.6553 95.2485 17.29C95.2485 17.3927 95.2438 17.5 95.2345 17.612C95.2345 17.724 95.2298 17.8407 95.2205 17.962H89.9425C89.9798 18.5033 90.1665 18.928 90.5025 19.236C90.8478 19.544 91.2632 19.698 91.7485 19.698C92.1125 19.698 92.4158 19.6187 92.6585 19.46C92.9105 19.292 93.0972 19.0773 93.2185 18.816H95.0385C94.9078 19.2547 94.6885 19.656 94.3805 20.02C94.0818 20.3747 93.7085 20.6547 93.2605 20.86C92.8218 21.0653 92.3225 21.168 91.7625 21.168ZM91.7765 15.344C91.3378 15.344 90.9505 15.47 90.6145 15.722C90.2785 15.9647 90.0638 16.338 89.9705 16.842H93.4285C93.4005 16.3847 93.2325 16.0207 92.9245 15.75C92.6165 15.4793 92.2338 15.344 91.7765 15.344ZM99.1497 21.168C98.5524 21.168 98.0624 21.0747 97.6797 20.888C97.297 20.692 97.0124 20.4353 96.8257 20.118C96.639 19.8007 96.5457 19.4507 96.5457 19.068C96.5457 18.424 96.7977 17.9013 97.3017 17.5C97.8057 17.0987 98.5617 16.898 99.5697 16.898H101.334V16.73C101.334 16.254 101.198 15.904 100.928 15.68C100.657 15.456 100.321 15.344 99.9197 15.344C99.5557 15.344 99.2384 15.4327 98.9677 15.61C98.697 15.778 98.529 16.03 98.4637 16.366H96.7137C96.7604 15.862 96.9284 15.4233 97.2177 15.05C97.5164 14.6767 97.899 14.392 98.3657 14.196C98.8324 13.9907 99.355 13.888 99.9337 13.888C100.923 13.888 101.702 14.1353 102.272 14.63C102.841 15.1247 103.126 15.8247 103.126 16.73V21H101.6L101.432 19.88C101.226 20.2533 100.937 20.5613 100.564 20.804C100.2 21.0467 99.7284 21.168 99.1497 21.168ZM99.5557 19.768C100.069 19.768 100.466 19.6 100.746 19.264C101.035 18.928 101.217 18.5127 101.292 18.018H99.7657C99.2897 18.018 98.949 18.1067 98.7437 18.284C98.5384 18.452 98.4357 18.662 98.4357 18.914C98.4357 19.1847 98.5384 19.3947 98.7437 19.544C98.949 19.6933 99.2197 19.768 99.5557 19.768ZM104.836 21V14.056H106.432L106.6 15.358C106.852 14.91 107.192 14.5553 107.622 14.294C108.06 14.0233 108.574 13.888 109.162 13.888V15.778H108.658C108.266 15.778 107.916 15.8387 107.608 15.96C107.3 16.0813 107.057 16.2913 106.88 16.59C106.712 16.8887 106.628 17.304 106.628 17.836V21H104.836ZM110.387 21V14.056H111.969L112.109 15.232C112.323 14.8213 112.631 14.4947 113.033 14.252C113.443 14.0093 113.924 13.888 114.475 13.888C115.333 13.888 116.001 14.1587 116.477 14.7C116.953 15.2413 117.191 16.0347 117.191 17.08V21H115.399V17.248C115.399 16.6507 115.277 16.1933 115.035 15.876C114.792 15.5587 114.414 15.4 113.901 15.4C113.397 15.4 112.981 15.5773 112.655 15.932C112.337 16.2867 112.179 16.7813 112.179 17.416V21H110.387ZM125.572 21.168C124.9 21.168 124.293 21.014 123.752 20.706C123.22 20.398 122.795 19.9733 122.478 19.432C122.17 18.8813 122.016 18.2467 122.016 17.528C122.016 16.8093 122.175 16.1793 122.492 15.638C122.809 15.0873 123.234 14.658 123.766 14.35C124.307 14.042 124.914 13.888 125.586 13.888C126.249 13.888 126.846 14.042 127.378 14.35C127.919 14.658 128.344 15.0873 128.652 15.638C128.969 16.1793 129.128 16.8093 129.128 17.528C129.128 18.2467 128.969 18.8813 128.652 19.432C128.344 19.9733 127.919 20.398 127.378 20.706C126.837 21.014 126.235 21.168 125.572 21.168ZM125.572 19.614C126.039 19.614 126.445 19.4413 126.79 19.096C127.135 18.7413 127.308 18.2187 127.308 17.528C127.308 16.8373 127.135 16.3193 126.79 15.974C126.445 15.6193 126.043 15.442 125.586 15.442C125.11 15.442 124.699 15.6193 124.354 15.974C124.018 16.3193 123.85 16.8373 123.85 17.528C123.85 18.2187 124.018 18.7413 124.354 19.096C124.699 19.4413 125.105 19.614 125.572 19.614ZM130.73 21V14.056H132.312L132.452 15.232C132.667 14.8213 132.975 14.4947 133.376 14.252C133.787 14.0093 134.268 13.888 134.818 13.888C135.677 13.888 136.344 14.1587 136.82 14.7C137.296 15.2413 137.534 16.0347 137.534 17.08V21H135.742V17.248C135.742 16.6507 135.621 16.1933 135.378 15.876C135.136 15.5587 134.758 15.4 134.244 15.4C133.74 15.4 133.325 15.5773 132.998 15.932C132.681 16.2867 132.522 16.7813 132.522 17.416V21H130.73ZM145.678 21C144.95 21 144.366 20.8227 143.928 20.468C143.489 20.1133 143.27 19.4833 143.27 18.578V15.554H142.08V14.056H143.27L143.48 12.194H145.062V14.056H146.938V15.554H145.062V18.592C145.062 18.928 145.132 19.1613 145.272 19.292C145.421 19.4133 145.673 19.474 146.028 19.474H146.896V21H145.678ZM148.476 21V10.92H150.268V15.12C150.502 14.7373 150.814 14.4387 151.206 14.224C151.608 14 152.065 13.888 152.578 13.888C153.437 13.888 154.1 14.1587 154.566 14.7C155.042 15.2413 155.28 16.0347 155.28 17.08V21H153.502V17.248C153.502 16.6507 153.381 16.1933 153.138 15.876C152.905 15.5587 152.532 15.4 152.018 15.4C151.514 15.4 151.094 15.5773 150.758 15.932C150.432 16.2867 150.268 16.7813 150.268 17.416V21H148.476ZM160.368 21.168C159.668 21.168 159.047 21.0187 158.506 20.72C157.965 20.4213 157.54 20.0013 157.232 19.46C156.924 18.9187 156.77 18.2933 156.77 17.584C156.77 16.8653 156.919 16.226 157.218 15.666C157.526 15.106 157.946 14.672 158.478 14.364C159.019 14.0467 159.654 13.888 160.382 13.888C161.063 13.888 161.665 14.0373 162.188 14.336C162.711 14.6347 163.117 15.0453 163.406 15.568C163.705 16.0813 163.854 16.6553 163.854 17.29C163.854 17.3927 163.849 17.5 163.84 17.612C163.84 17.724 163.835 17.8407 163.826 17.962H158.548C158.585 18.5033 158.772 18.928 159.108 19.236C159.453 19.544 159.869 19.698 160.354 19.698C160.718 19.698 161.021 19.6187 161.264 19.46C161.516 19.292 161.703 19.0773 161.824 18.816H163.644C163.513 19.2547 163.294 19.656 162.986 20.02C162.687 20.3747 162.314 20.6547 161.866 20.86C161.427 21.0653 160.928 21.168 160.368 21.168ZM160.382 15.344C159.943 15.344 159.556 15.47 159.22 15.722C158.884 15.9647 158.669 16.338 158.576 16.842H162.034C162.006 16.3847 161.838 16.0207 161.53 15.75C161.222 15.4793 160.839 15.344 160.382 15.344ZM168.697 21V14.056H170.279L170.433 14.994C170.657 14.658 170.951 14.392 171.315 14.196C171.688 13.9907 172.118 13.888 172.603 13.888C173.676 13.888 174.437 14.3033 174.885 15.134C175.137 14.7513 175.473 14.448 175.893 14.224C176.322 14 176.789 13.888 177.293 13.888C178.198 13.888 178.894 14.1587 179.379 14.7C179.864 15.2413 180.107 16.0347 180.107 17.08V21H178.315V17.248C178.315 16.6507 178.198 16.1933 177.965 15.876C177.741 15.5587 177.391 15.4 176.915 15.4C176.43 15.4 176.038 15.5773 175.739 15.932C175.45 16.2867 175.305 16.7813 175.305 17.416V21H173.513V17.248C173.513 16.6507 173.396 16.1933 173.163 15.876C172.93 15.5587 172.57 15.4 172.085 15.4C171.609 15.4 171.222 15.5773 170.923 15.932C170.634 16.2867 170.489 16.7813 170.489 17.416V21H168.697ZM185.14 21.168C184.468 21.168 183.862 21.014 183.32 20.706C182.788 20.398 182.364 19.9733 182.046 19.432C181.738 18.8813 181.584 18.2467 181.584 17.528C181.584 16.8093 181.743 16.1793 182.06 15.638C182.378 15.0873 182.802 14.658 183.334 14.35C183.876 14.042 184.482 13.888 185.154 13.888C185.817 13.888 186.414 14.042 186.946 14.35C187.488 14.658 187.912 15.0873 188.22 15.638C188.538 16.1793 188.696 16.8093 188.696 17.528C188.696 18.2467 188.538 18.8813 188.22 19.432C187.912 19.9733 187.488 20.398 186.946 20.706C186.405 21.014 185.803 21.168 185.14 21.168ZM185.14 19.614C185.607 19.614 186.013 19.4413 186.358 19.096C186.704 18.7413 186.876 18.2187 186.876 17.528C186.876 16.8373 186.704 16.3193 186.358 15.974C186.013 15.6193 185.612 15.442 185.154 15.442C184.678 15.442 184.268 15.6193 183.922 15.974C183.586 16.3193 183.418 16.8373 183.418 17.528C183.418 18.2187 183.586 18.7413 183.922 19.096C184.268 19.4413 184.674 19.614 185.14 19.614ZM193.169 21.168C192.553 21.168 192.011 21.07 191.545 20.874C191.078 20.6687 190.705 20.3887 190.425 20.034C190.145 19.6793 189.977 19.2687 189.921 18.802H191.727C191.783 19.0727 191.932 19.306 192.175 19.502C192.427 19.6887 192.749 19.782 193.141 19.782C193.533 19.782 193.817 19.7027 193.995 19.544C194.181 19.3853 194.275 19.2033 194.275 18.998C194.275 18.6993 194.144 18.4987 193.883 18.396C193.621 18.284 193.257 18.1767 192.791 18.074C192.492 18.0087 192.189 17.9293 191.881 17.836C191.573 17.7427 191.288 17.626 191.027 17.486C190.775 17.3367 190.569 17.15 190.411 16.926C190.252 16.6927 190.173 16.408 190.173 16.072C190.173 15.456 190.415 14.938 190.901 14.518C191.395 14.098 192.086 13.888 192.973 13.888C193.794 13.888 194.447 14.0793 194.933 14.462C195.427 14.8447 195.721 15.372 195.815 16.044H194.121C194.018 15.5307 193.631 15.274 192.959 15.274C192.623 15.274 192.361 15.3393 192.175 15.47C191.997 15.6007 191.909 15.764 191.909 15.96C191.909 16.1653 192.044 16.3287 192.315 16.45C192.585 16.5713 192.945 16.6833 193.393 16.786C193.878 16.898 194.321 17.024 194.723 17.164C195.133 17.2947 195.46 17.4953 195.703 17.766C195.945 18.0273 196.067 18.4053 196.067 18.9C196.076 19.3293 195.964 19.7167 195.731 20.062C195.497 20.4073 195.161 20.678 194.723 20.874C194.284 21.07 193.766 21.168 193.169 21.168ZM200.529 21C199.801 21 199.218 20.8227 198.779 20.468C198.341 20.1133 198.121 19.4833 198.121 18.578V15.554H196.931V14.056H198.121L198.331 12.194H199.913V14.056H201.789V15.554H199.913V18.592C199.913 18.928 199.983 19.1613 200.123 19.292C200.273 19.4133 200.525 19.474 200.879 19.474H201.747V21H200.529ZM209.856 21.168C209.203 21.168 208.619 21.0093 208.106 20.692C207.593 20.3747 207.187 19.9407 206.888 19.39C206.589 18.8393 206.44 18.214 206.44 17.514C206.44 16.814 206.589 16.1933 206.888 15.652C207.187 15.1013 207.593 14.672 208.106 14.364C208.619 14.0467 209.203 13.888 209.856 13.888C210.379 13.888 210.836 13.986 211.228 14.182C211.62 14.378 211.937 14.6533 212.18 15.008V10.92H213.972V21H212.376L212.18 20.006C211.956 20.314 211.657 20.5847 211.284 20.818C210.92 21.0513 210.444 21.168 209.856 21.168ZM210.234 19.6C210.813 19.6 211.284 19.4087 211.648 19.026C212.021 18.634 212.208 18.1347 212.208 17.528C212.208 16.9213 212.021 16.4267 211.648 16.044C211.284 15.652 210.813 15.456 210.234 15.456C209.665 15.456 209.193 15.6473 208.82 16.03C208.447 16.4127 208.26 16.9073 208.26 17.514C208.26 18.1207 208.447 18.62 208.82 19.012C209.193 19.404 209.665 19.6 210.234 19.6ZM216.763 12.978C216.436 12.978 216.165 12.88 215.951 12.684C215.745 12.488 215.643 12.2407 215.643 11.942C215.643 11.6433 215.745 11.4007 215.951 11.214C216.165 11.018 216.436 10.92 216.763 10.92C217.089 10.92 217.355 11.018 217.561 11.214C217.775 11.4007 217.883 11.6433 217.883 11.942C217.883 12.2407 217.775 12.488 217.561 12.684C217.355 12.88 217.089 12.978 216.763 12.978ZM215.867 21V14.056H217.659V21H215.867ZM222.399 21.168C221.783 21.168 221.242 21.07 220.775 20.874C220.308 20.6687 219.935 20.3887 219.655 20.034C219.375 19.6793 219.207 19.2687 219.151 18.802H220.957C221.013 19.0727 221.162 19.306 221.405 19.502C221.657 19.6887 221.979 19.782 222.371 19.782C222.763 19.782 223.048 19.7027 223.225 19.544C223.412 19.3853 223.505 19.2033 223.505 18.998C223.505 18.6993 223.374 18.4987 223.113 18.396C222.852 18.284 222.488 18.1767 222.021 18.074C221.722 18.0087 221.419 17.9293 221.111 17.836C220.803 17.7427 220.518 17.626 220.257 17.486C220.005 17.3367 219.8 17.15 219.641 16.926C219.482 16.6927 219.403 16.408 219.403 16.072C219.403 15.456 219.646 14.938 220.131 14.518C220.626 14.098 221.316 13.888 222.203 13.888C223.024 13.888 223.678 14.0793 224.163 14.462C224.658 14.8447 224.952 15.372 225.045 16.044H223.351C223.248 15.5307 222.861 15.274 222.189 15.274C221.853 15.274 221.592 15.3393 221.405 15.47C221.228 15.6007 221.139 15.764 221.139 15.96C221.139 16.1653 221.274 16.3287 221.545 16.45C221.816 16.5713 222.175 16.6833 222.623 16.786C223.108 16.898 223.552 17.024 223.953 17.164C224.364 17.2947 224.69 17.4953 224.933 17.766C225.176 18.0273 225.297 18.4053 225.297 18.9C225.306 19.3293 225.194 19.7167 224.961 20.062C224.728 20.4073 224.392 20.678 223.953 20.874C223.514 21.07 222.996 21.168 222.399 21.168ZM226.885 21V14.056H228.481L228.649 15.358C228.901 14.91 229.241 14.5553 229.671 14.294C230.109 14.0233 230.623 13.888 231.211 13.888V15.778H230.707C230.315 15.778 229.965 15.8387 229.657 15.96C229.349 16.0813 229.106 16.2913 228.929 16.59C228.761 16.8887 228.677 17.304 228.677 17.836V21H226.885ZM235.039 21.168C234.171 21.168 233.499 20.8973 233.023 20.356C232.557 19.8147 232.323 19.0213 232.323 17.976V14.056H234.101V17.808C234.101 18.4053 234.223 18.8627 234.465 19.18C234.708 19.4973 235.091 19.656 235.613 19.656C236.108 19.656 236.514 19.4787 236.831 19.124C237.158 18.7693 237.321 18.2747 237.321 17.64V14.056H239.113V21H237.531L237.391 19.824C237.177 20.2347 236.864 20.5613 236.453 20.804C236.052 21.0467 235.581 21.168 235.039 21.168ZM240.953 24.08V14.056H242.549L242.745 15.05C242.969 14.742 243.263 14.4713 243.627 14.238C244 14.0047 244.481 13.888 245.069 13.888C245.722 13.888 246.306 14.0467 246.819 14.364C247.332 14.6813 247.738 15.1153 248.037 15.666C248.336 16.2167 248.485 16.842 248.485 17.542C248.485 18.242 248.336 18.8673 248.037 19.418C247.738 19.9593 247.332 20.3887 246.819 20.706C246.306 21.014 245.722 21.168 245.069 21.168C244.546 21.168 244.089 21.07 243.697 20.874C243.305 20.678 242.988 20.4027 242.745 20.048V24.08H240.953ZM244.691 19.6C245.26 19.6 245.732 19.4087 246.105 19.026C246.478 18.6433 246.665 18.1487 246.665 17.542C246.665 16.9353 246.478 16.436 246.105 16.044C245.732 15.652 245.26 15.456 244.691 15.456C244.112 15.456 243.636 15.652 243.263 16.044C242.899 16.4267 242.717 16.9213 242.717 17.528C242.717 18.1347 242.899 18.634 243.263 19.026C243.636 19.4087 244.112 19.6 244.691 19.6ZM252.906 21C252.178 21 251.595 20.8227 251.156 20.468C250.718 20.1133 250.498 19.4833 250.498 18.578V15.554H249.308V14.056H250.498L250.708 12.194H252.29V14.056H254.166V15.554H252.29V18.592C252.29 18.928 252.36 19.1613 252.5 19.292C252.65 19.4133 252.902 19.474 253.256 19.474H254.124V21H252.906ZM256.671 12.978C256.344 12.978 256.074 12.88 255.859 12.684C255.654 12.488 255.551 12.2407 255.551 11.942C255.551 11.6433 255.654 11.4007 255.859 11.214C256.074 11.018 256.344 10.92 256.671 10.92C256.998 10.92 257.264 11.018 257.469 11.214C257.684 11.4007 257.791 11.6433 257.791 11.942C257.791 12.2407 257.684 12.488 257.469 12.684C257.264 12.88 256.998 12.978 256.671 12.978ZM255.775 21V14.056H257.567V21H255.775ZM261.313 21L258.765 14.056H260.641L262.405 19.306L264.169 14.056H266.045L263.483 21H261.313ZM270.208 21.168C269.508 21.168 268.887 21.0187 268.346 20.72C267.804 20.4213 267.38 20.0013 267.072 19.46C266.764 18.9187 266.61 18.2933 266.61 17.584C266.61 16.8653 266.759 16.226 267.058 15.666C267.366 15.106 267.786 14.672 268.318 14.364C268.859 14.0467 269.494 13.888 270.222 13.888C270.903 13.888 271.505 14.0373 272.028 14.336C272.55 14.6347 272.956 15.0453 273.246 15.568C273.544 16.0813 273.694 16.6553 273.694 17.29C273.694 17.3927 273.689 17.5 273.68 17.612C273.68 17.724 273.675 17.8407 273.666 17.962H268.388C268.425 18.5033 268.612 18.928 268.948 19.236C269.293 19.544 269.708 19.698 270.194 19.698C270.558 19.698 270.861 19.6187 271.104 19.46C271.356 19.292 271.542 19.0773 271.664 18.816H273.484C273.353 19.2547 273.134 19.656 272.826 20.02C272.527 20.3747 272.154 20.6547 271.706 20.86C271.267 21.0653 270.768 21.168 270.208 21.168ZM270.222 15.344C269.783 15.344 269.396 15.47 269.06 15.722C268.724 15.9647 268.509 16.338 268.416 16.842H271.874C271.846 16.3847 271.678 16.0207 271.37 15.75C271.062 15.4793 270.679 15.344 270.222 15.344ZM278.859 21V15.554H277.907V14.056H278.859V13.244C278.859 12.404 279.069 11.8067 279.489 11.452C279.918 11.0973 280.497 10.92 281.225 10.92H281.995V12.446H281.505C281.197 12.446 280.978 12.5067 280.847 12.628C280.716 12.7493 280.651 12.9547 280.651 13.244V14.056H282.149V15.554H280.651V21H278.859ZM285.689 21.168C285.091 21.168 284.601 21.0747 284.219 20.888C283.836 20.692 283.551 20.4353 283.365 20.118C283.178 19.8007 283.085 19.4507 283.085 19.068C283.085 18.424 283.337 17.9013 283.841 17.5C284.345 17.0987 285.101 16.898 286.109 16.898H287.873V16.73C287.873 16.254 287.737 15.904 287.467 15.68C287.196 15.456 286.86 15.344 286.459 15.344C286.095 15.344 285.777 15.4327 285.507 15.61C285.236 15.778 285.068 16.03 285.003 16.366H283.253C283.299 15.862 283.467 15.4233 283.757 15.05C284.055 14.6767 284.438 14.392 284.905 14.196C285.371 13.9907 285.894 13.888 286.473 13.888C287.462 13.888 288.241 14.1353 288.811 14.63C289.38 15.1247 289.665 15.8247 289.665 16.73V21H288.139L287.971 19.88C287.765 20.2533 287.476 20.5613 287.103 20.804C286.739 21.0467 286.267 21.168 285.689 21.168ZM286.095 19.768C286.608 19.768 287.005 19.6 287.285 19.264C287.574 18.928 287.756 18.5127 287.831 18.018H286.305C285.829 18.018 285.488 18.1067 285.283 18.284C285.077 18.452 284.975 18.662 284.975 18.914C284.975 19.1847 285.077 19.3947 285.283 19.544C285.488 19.6933 285.759 19.768 286.095 19.768ZM291.375 21V14.056H292.971L293.139 15.358C293.391 14.91 293.732 14.5553 294.161 14.294C294.6 14.0233 295.113 13.888 295.701 13.888V15.778H295.197C294.805 15.778 294.455 15.8387 294.147 15.96C293.839 16.0813 293.596 16.2913 293.419 16.59C293.251 16.8887 293.167 17.304 293.167 17.836V21H291.375ZM296.926 21V14.056H298.508L298.662 14.994C298.886 14.658 299.18 14.392 299.544 14.196C299.917 13.9907 300.346 13.888 300.832 13.888C301.905 13.888 302.666 14.3033 303.114 15.134C303.366 14.7513 303.702 14.448 304.122 14.224C304.551 14 305.018 13.888 305.522 13.888C306.427 13.888 307.122 14.1587 307.608 14.7C308.093 15.2413 308.336 16.0347 308.336 17.08V21H306.544V17.248C306.544 16.6507 306.427 16.1933 306.194 15.876C305.97 15.5587 305.62 15.4 305.144 15.4C304.658 15.4 304.266 15.5773 303.968 15.932C303.678 16.2867 303.534 16.7813 303.534 17.416V21H301.742V17.248C301.742 16.6507 301.625 16.1933 301.392 15.876C301.158 15.5587 300.799 15.4 300.314 15.4C299.838 15.4 299.45 15.5773 299.152 15.932C298.862 16.2867 298.718 16.7813 298.718 17.416V21H296.926ZM311.003 12.978C310.676 12.978 310.406 12.88 310.191 12.684C309.986 12.488 309.883 12.2407 309.883 11.942C309.883 11.6433 309.986 11.4007 310.191 11.214C310.406 11.018 310.676 10.92 311.003 10.92C311.33 10.92 311.596 11.018 311.801 11.214C312.016 11.4007 312.123 11.6433 312.123 11.942C312.123 12.2407 312.016 12.488 311.801 12.684C311.596 12.88 311.33 12.978 311.003 12.978ZM310.107 21V14.056H311.899V21H310.107ZM313.769 21V14.056H315.351L315.491 15.232C315.706 14.8213 316.014 14.4947 316.415 14.252C316.826 14.0093 317.307 13.888 317.857 13.888C318.716 13.888 319.383 14.1587 319.859 14.7C320.335 15.2413 320.573 16.0347 320.573 17.08V21H318.781V17.248C318.781 16.6507 318.66 16.1933 318.417 15.876C318.175 15.5587 317.797 15.4 317.283 15.4C316.779 15.4 316.364 15.5773 316.037 15.932C315.72 16.2867 315.561 16.7813 315.561 17.416V21H313.769ZM325.227 18.928C324.891 18.928 324.578 18.8907 324.289 18.816L323.771 19.334C323.93 19.418 324.144 19.488 324.415 19.544C324.686 19.6 325.124 19.656 325.731 19.712C326.655 19.796 327.327 20.0153 327.747 20.37C328.167 20.7247 328.377 21.2147 328.377 21.84C328.377 22.2507 328.265 22.638 328.041 23.002C327.817 23.3753 327.472 23.674 327.005 23.898C326.538 24.1313 325.941 24.248 325.213 24.248C324.224 24.248 323.426 24.0613 322.819 23.688C322.212 23.324 321.909 22.7733 321.909 22.036C321.909 21.4107 322.212 20.8693 322.819 20.412C322.632 20.328 322.469 20.2393 322.329 20.146C322.198 20.0527 322.082 19.9547 321.979 19.852V19.53L323.197 18.242C322.656 17.766 322.385 17.1547 322.385 16.408C322.385 15.9413 322.497 15.5167 322.721 15.134C322.954 14.7513 323.281 14.448 323.701 14.224C324.121 14 324.63 13.888 325.227 13.888C325.619 13.888 325.983 13.944 326.319 14.056H328.951V15.148L327.761 15.232C327.948 15.5867 328.041 15.9787 328.041 16.408C328.041 16.8747 327.929 17.2993 327.705 17.682C327.481 18.0647 327.154 18.368 326.725 18.592C326.305 18.816 325.806 18.928 325.227 18.928ZM325.227 17.556C325.591 17.556 325.89 17.458 326.123 17.262C326.366 17.066 326.487 16.786 326.487 16.422C326.487 16.058 326.366 15.778 326.123 15.582C325.89 15.386 325.591 15.288 325.227 15.288C324.844 15.288 324.536 15.386 324.303 15.582C324.07 15.778 323.953 16.058 323.953 16.422C323.953 16.786 324.07 17.066 324.303 17.262C324.536 17.458 324.844 17.556 325.227 17.556ZM323.547 21.854C323.547 22.1993 323.706 22.456 324.023 22.624C324.35 22.8013 324.746 22.89 325.213 22.89C325.661 22.89 326.025 22.7967 326.305 22.61C326.585 22.4327 326.725 22.19 326.725 21.882C326.725 21.63 326.632 21.42 326.445 21.252C326.268 21.084 325.908 20.9813 325.367 20.944C324.984 20.916 324.63 20.874 324.303 20.818C324.032 20.9673 323.836 21.1307 323.715 21.308C323.603 21.4853 323.547 21.6673 323.547 21.854ZM333.594 24.08V14.056H335.19L335.386 15.05C335.61 14.742 335.904 14.4713 336.268 14.238C336.641 14.0047 337.122 13.888 337.71 13.888C338.363 13.888 338.946 14.0467 339.46 14.364C339.973 14.6813 340.379 15.1153 340.678 15.666C340.976 16.2167 341.126 16.842 341.126 17.542C341.126 18.242 340.976 18.8673 340.678 19.418C340.379 19.9593 339.973 20.3887 339.46 20.706C338.946 21.014 338.363 21.168 337.71 21.168C337.187 21.168 336.73 21.07 336.338 20.874C335.946 20.678 335.628 20.4027 335.386 20.048V24.08H333.594ZM337.332 19.6C337.901 19.6 338.372 19.4087 338.746 19.026C339.119 18.6433 339.306 18.1487 339.306 17.542C339.306 16.9353 339.119 16.436 338.746 16.044C338.372 15.652 337.901 15.456 337.332 15.456C336.753 15.456 336.277 15.652 335.904 16.044C335.54 16.4267 335.358 16.9213 335.358 17.528C335.358 18.1347 335.54 18.634 335.904 19.026C336.277 19.4087 336.753 19.6 337.332 19.6ZM342.726 21V14.056H344.322L344.49 15.358C344.742 14.91 345.083 14.5553 345.512 14.294C345.951 14.0233 346.464 13.888 347.052 13.888V15.778H346.548C346.156 15.778 345.806 15.8387 345.498 15.96C345.19 16.0813 344.948 16.2913 344.77 16.59C344.602 16.8887 344.518 17.304 344.518 17.836V21H342.726ZM351.486 21.168C350.814 21.168 350.207 21.014 349.666 20.706C349.134 20.398 348.709 19.9733 348.392 19.432C348.084 18.8813 347.93 18.2467 347.93 17.528C347.93 16.8093 348.089 16.1793 348.406 15.638C348.723 15.0873 349.148 14.658 349.68 14.35C350.221 14.042 350.828 13.888 351.5 13.888C352.163 13.888 352.76 14.042 353.292 14.35C353.833 14.658 354.258 15.0873 354.566 15.638C354.883 16.1793 355.042 16.8093 355.042 17.528C355.042 18.2467 354.883 18.8813 354.566 19.432C354.258 19.9733 353.833 20.398 353.292 20.706C352.751 21.014 352.149 21.168 351.486 21.168ZM351.486 19.614C351.953 19.614 352.359 19.4413 352.704 19.096C353.049 18.7413 353.222 18.2187 353.222 17.528C353.222 16.8373 353.049 16.3193 352.704 15.974C352.359 15.6193 351.957 15.442 351.5 15.442C351.024 15.442 350.613 15.6193 350.268 15.974C349.932 16.3193 349.764 16.8373 349.764 17.528C349.764 18.2187 349.932 18.7413 350.268 19.096C350.613 19.4413 351.019 19.614 351.486 19.614ZM359.465 21C358.737 21 358.154 20.8227 357.715 20.468C357.276 20.1133 357.057 19.4833 357.057 18.578V15.554H355.867V14.056H357.057L357.267 12.194H358.849V14.056H360.725V15.554H358.849V18.592C358.849 18.928 358.919 19.1613 359.059 19.292C359.208 19.4133 359.46 19.474 359.815 19.474H360.683V21H359.465ZM365.418 21.168C364.746 21.168 364.139 21.014 363.598 20.706C363.066 20.398 362.641 19.9733 362.324 19.432C362.016 18.8813 361.862 18.2467 361.862 17.528C361.862 16.8093 362.02 16.1793 362.338 15.638C362.655 15.0873 363.08 14.658 363.612 14.35C364.153 14.042 364.76 13.888 365.432 13.888C366.094 13.888 366.692 14.042 367.224 14.35C367.765 14.658 368.19 15.0873 368.498 15.638C368.815 16.1793 368.974 16.8093 368.974 17.528C368.974 18.2467 368.815 18.8813 368.498 19.432C368.19 19.9733 367.765 20.398 367.224 20.706C366.682 21.014 366.08 21.168 365.418 21.168ZM365.418 19.614C365.884 19.614 366.29 19.4413 366.636 19.096C366.981 18.7413 367.154 18.2187 367.154 17.528C367.154 16.8373 366.981 16.3193 366.636 15.974C366.29 15.6193 365.889 15.442 365.432 15.442C364.956 15.442 364.545 15.6193 364.2 15.974C363.864 16.3193 363.696 16.8373 363.696 17.528C363.696 18.2187 363.864 18.7413 364.2 19.096C364.545 19.4413 364.951 19.614 365.418 19.614ZM373.978 21.168C373.269 21.168 372.643 21.014 372.102 20.706C371.561 20.398 371.131 19.9687 370.814 19.418C370.506 18.8673 370.352 18.2373 370.352 17.528C370.352 16.8187 370.506 16.1887 370.814 15.638C371.131 15.0873 371.561 14.658 372.102 14.35C372.643 14.042 373.269 13.888 373.978 13.888C374.865 13.888 375.611 14.1213 376.218 14.588C376.825 15.0453 377.212 15.68 377.38 16.492H375.49C375.397 16.156 375.21 15.8947 374.93 15.708C374.659 15.512 374.337 15.414 373.964 15.414C373.469 15.414 373.049 15.6007 372.704 15.974C372.359 16.3473 372.186 16.8653 372.186 17.528C372.186 18.1907 372.359 18.7087 372.704 19.082C373.049 19.4553 373.469 19.642 373.964 19.642C374.337 19.642 374.659 19.5487 374.93 19.362C375.21 19.1753 375.397 18.9093 375.49 18.564H377.38C377.212 19.348 376.825 19.978 376.218 20.454C375.611 20.93 374.865 21.168 373.978 21.168ZM382.303 21.168C381.631 21.168 381.024 21.014 380.483 20.706C379.951 20.398 379.526 19.9733 379.209 19.432C378.901 18.8813 378.747 18.2467 378.747 17.528C378.747 16.8093 378.905 16.1793 379.223 15.638C379.54 15.0873 379.965 14.658 380.497 14.35C381.038 14.042 381.645 13.888 382.317 13.888C382.979 13.888 383.577 14.042 384.109 14.35C384.65 14.658 385.075 15.0873 385.383 15.638C385.7 16.1793 385.859 16.8093 385.859 17.528C385.859 18.2467 385.7 18.8813 385.383 19.432C385.075 19.9733 384.65 20.398 384.109 20.706C383.567 21.014 382.965 21.168 382.303 21.168ZM382.303 19.614C382.769 19.614 383.175 19.4413 383.521 19.096C383.866 18.7413 384.039 18.2187 384.039 17.528C384.039 16.8373 383.866 16.3193 383.521 15.974C383.175 15.6193 382.774 15.442 382.317 15.442C381.841 15.442 381.43 15.6193 381.085 15.974C380.749 16.3193 380.581 16.8373 380.581 17.528C380.581 18.2187 380.749 18.7413 381.085 19.096C381.43 19.4413 381.836 19.614 382.303 19.614ZM387.461 21V10.92H389.253V21H387.461ZM395.386 12.978C395.059 12.978 394.788 12.88 394.574 12.684C394.368 12.488 394.266 12.2407 394.266 11.942C394.266 11.6433 394.368 11.4007 394.574 11.214C394.788 11.018 395.059 10.92 395.386 10.92C395.712 10.92 395.978 11.018 396.184 11.214C396.398 11.4007 396.506 11.6433 396.506 11.942C396.506 12.2407 396.398 12.488 396.184 12.684C395.978 12.88 395.712 12.978 395.386 12.978ZM394.49 21V14.056H396.282V21H394.49ZM398.152 21V14.056H399.734L399.874 15.232C400.089 14.8213 400.397 14.4947 400.798 14.252C401.209 14.0093 401.69 13.888 402.24 13.888C403.099 13.888 403.766 14.1587 404.242 14.7C404.718 15.2413 404.956 16.0347 404.956 17.08V21H403.164V17.248C403.164 16.6507 403.043 16.1933 402.8 15.876C402.558 15.5587 402.18 15.4 401.666 15.4C401.162 15.4 400.747 15.5773 400.42 15.932C400.103 16.2867 399.944 16.7813 399.944 17.416V21H398.152ZM410.048 21V11.2H413.394C414.542 11.2 415.484 11.4053 416.222 11.816C416.968 12.2173 417.519 12.7867 417.874 13.524C418.238 14.252 418.42 15.1107 418.42 16.1C418.42 17.0893 418.238 17.9527 417.874 18.69C417.519 19.418 416.968 19.9873 416.222 20.398C415.484 20.7993 414.542 21 413.394 21H410.048ZM411.84 19.46H413.31C414.131 19.46 414.78 19.3293 415.256 19.068C415.732 18.7973 416.072 18.4147 416.278 17.92C416.483 17.416 416.586 16.8093 416.586 16.1C416.586 15.4 416.483 14.798 416.278 14.294C416.072 13.79 415.732 13.4027 415.256 13.132C414.78 12.8613 414.131 12.726 413.31 12.726H411.84V19.46ZM423.333 21.168C422.633 21.168 422.012 21.0187 421.471 20.72C420.929 20.4213 420.505 20.0013 420.197 19.46C419.889 18.9187 419.735 18.2933 419.735 17.584C419.735 16.8653 419.884 16.226 420.183 15.666C420.491 15.106 420.911 14.672 421.443 14.364C421.984 14.0467 422.619 13.888 423.347 13.888C424.028 13.888 424.63 14.0373 425.153 14.336C425.675 14.6347 426.081 15.0453 426.371 15.568C426.669 16.0813 426.819 16.6553 426.819 17.29C426.819 17.3927 426.814 17.5 426.805 17.612C426.805 17.724 426.8 17.8407 426.791 17.962H421.513C421.55 18.5033 421.737 18.928 422.073 19.236C422.418 19.544 422.833 19.698 423.319 19.698C423.683 19.698 423.986 19.6187 424.229 19.46C424.481 19.292 424.667 19.0773 424.789 18.816H426.609C426.478 19.2547 426.259 19.656 425.951 20.02C425.652 20.3747 425.279 20.6547 424.831 20.86C424.392 21.0653 423.893 21.168 423.333 21.168ZM423.347 15.344C422.908 15.344 422.521 15.47 422.185 15.722C421.849 15.9647 421.634 16.338 421.541 16.842H424.999C424.971 16.3847 424.803 16.0207 424.495 15.75C424.187 15.4793 423.804 15.344 423.347 15.344ZM428.368 21V11.2H434.696V12.642H430.16V15.386H433.828V16.8H430.16V21H428.368ZM437.003 12.978C436.676 12.978 436.406 12.88 436.191 12.684C435.986 12.488 435.883 12.2407 435.883 11.942C435.883 11.6433 435.986 11.4007 436.191 11.214C436.406 11.018 436.676 10.92 437.003 10.92C437.33 10.92 437.596 11.018 437.801 11.214C438.016 11.4007 438.123 11.6433 438.123 11.942C438.123 12.2407 438.016 12.488 437.801 12.684C437.596 12.88 437.33 12.978 437.003 12.978ZM436.107 21V14.056H437.899V21H436.107ZM440.539 21.098C440.213 21.098 439.942 20.9953 439.727 20.79C439.522 20.5847 439.419 20.3373 439.419 20.048C439.419 19.7493 439.522 19.4973 439.727 19.292C439.942 19.0867 440.213 18.984 440.539 18.984C440.866 18.984 441.132 19.0867 441.337 19.292C441.552 19.4973 441.659 19.7493 441.659 20.048C441.659 20.3373 441.552 20.5847 441.337 20.79C441.132 20.9953 440.866 21.098 440.539 21.098Z" fill="white"/>
</svg>
