<svg width="146" height="45" viewBox="0 0 146 45" fill="none" xmlns="http://www.w3.org/2000/svg">
<path d="M18.9805 2.10913L1 12.4285V33.3263L18.9805 22.9933V2.10913Z" stroke="white" stroke-width="1.41772"/>
<path d="M38.4342 12.4421L20.2765 2V23.5658L38.4342 33.3808V12.4421Z" stroke="white" stroke-width="1.41772"/>
<path d="M37.7522 34.5395L19.5671 44.0001L1.64111 34.6076L19.5671 24.261L37.7522 34.5395Z" stroke="white" stroke-width="1.41772"/>
<path d="M25.5544 23.1138L32.4211 11.3376L19.1369 19.6162L25.5544 23.1138Z" fill="white"/>
<path d="M23.3725 26.8359L25.5544 23.1138L19.0728 19.5842V26.8359H23.3725Z" fill="white"/>
<path d="M14.8374 26.7717H19.0729V19.552L12.5592 23.0817L14.8374 26.7717Z" fill="white"/>
<path d="M19.1688 34.0876L23.3723 26.8359L19.1367 26.8678L19.1688 34.0876Z" fill="white"/>
<path d="M14.8375 26.7718L19.1052 34.1199L19.1373 26.836L14.8375 26.7718Z" fill="white"/>
<path d="M12.5913 23.146L19.0729 19.6164L5.85288 11.9154L12.5913 23.146Z" fill="white"/>
<path d="M47.0529 19.2743V17.0664H58.6531V19.2743H54.1593V31.6057H51.5468V19.2743H47.0529ZM64.2219 31.8187C63.1286 31.8187 62.1844 31.5915 61.3893 31.1372C60.5989 30.6781 59.9907 30.0297 59.5648 29.192C59.1388 28.3495 58.9258 27.358 58.9258 26.2174C58.9258 25.0957 59.1388 24.1113 59.5648 23.2641C59.9954 22.4122 60.5965 21.7496 61.368 21.2763C62.1394 20.7983 63.0458 20.5593 64.087 20.5593C64.759 20.5593 65.3933 20.6681 65.9896 20.8858C66.5907 21.0988 67.1207 21.4301 67.5798 21.8797C68.0436 22.3293 68.4081 22.902 68.6731 23.5977C68.9382 24.2887 69.0707 25.1122 69.0707 26.0683V26.8563H60.1327V25.1241H66.6072C66.6025 24.6319 66.496 24.1941 66.2878 23.8107C66.0795 23.4226 65.7884 23.1174 65.4145 22.8949C65.0454 22.6725 64.6147 22.5612 64.1225 22.5612C63.5971 22.5612 63.1357 22.689 62.7381 22.9446C62.3406 23.1954 62.0306 23.5267 61.8081 23.9385C61.5904 24.3455 61.4792 24.7928 61.4745 25.2803V26.7924C61.4745 27.4266 61.5904 27.9709 61.8223 28.4252C62.0542 28.8749 62.3784 29.2204 62.7949 29.4617C63.2114 29.6984 63.6989 29.8167 64.2574 29.8167C64.6313 29.8167 64.9697 29.7646 65.2726 29.6605C65.5755 29.5517 65.8381 29.3931 66.0606 29.1849C66.283 28.9766 66.451 28.7187 66.5646 28.411L68.9642 28.6808C68.8127 29.315 68.524 29.8688 68.0981 30.342C67.6768 30.8106 67.1373 31.175 66.4794 31.4353C65.8216 31.6909 65.0691 31.8187 64.2219 31.8187ZM71.4447 31.6057V20.7012H73.9366V22.5186H74.0502C74.2489 21.8892 74.5897 21.4041 75.0725 21.0633C75.5599 20.7178 76.1161 20.5451 76.7408 20.5451C76.8828 20.5451 77.0413 20.5522 77.2164 20.5664C77.3963 20.5758 77.5454 20.5924 77.6637 20.616V22.9801C77.5548 22.9422 77.3821 22.9091 77.1454 22.8807C76.9135 22.8476 76.6887 22.831 76.471 22.831C76.0025 22.831 75.5812 22.9328 75.2073 23.1363C74.8382 23.3351 74.5471 23.6119 74.3341 23.9669C74.1212 24.3219 74.0147 24.7313 74.0147 25.1951V31.6057H71.4447ZM82.5136 31.8258C81.8226 31.8258 81.2003 31.7027 80.6465 31.4566C80.0975 31.2058 79.6621 30.8366 79.3403 30.3491C79.0232 29.8617 78.8646 29.2606 78.8646 28.5459C78.8646 27.9307 78.9782 27.4219 79.2054 27.0196C79.4326 26.6173 79.7426 26.2955 80.1354 26.0541C80.5282 25.8127 80.9707 25.6305 81.4629 25.5074C81.9599 25.3797 82.4734 25.2874 83.0035 25.2306C83.6424 25.1643 84.1607 25.1051 84.5582 25.0531C84.9558 24.9963 85.2445 24.9111 85.4243 24.7975C85.6089 24.6792 85.7012 24.497 85.7012 24.2509V24.2083C85.7012 23.6735 85.5427 23.2593 85.2256 22.9659C84.9085 22.6725 84.4517 22.5257 83.8554 22.5257C83.2259 22.5257 82.7266 22.663 82.3574 22.9375C81.993 23.212 81.7469 23.5362 81.6191 23.9101L79.2196 23.5693C79.4089 22.9067 79.7213 22.353 80.1567 21.9081C80.5921 21.4585 81.1245 21.1225 81.754 20.9C82.3835 20.6728 83.0792 20.5593 83.8412 20.5593C84.3665 20.5593 84.8895 20.6208 85.4101 20.7438C85.9307 20.8669 86.4064 21.0704 86.8371 21.3544C87.2678 21.6336 87.6133 22.0146 87.8736 22.4974C88.1386 22.9801 88.2711 23.5835 88.2711 24.3077V31.6057H85.8006V30.1078H85.7154C85.5592 30.4107 85.3391 30.6946 85.0552 30.9597C84.7759 31.22 84.4233 31.4306 83.9974 31.5915C83.5762 31.7477 83.0816 31.8258 82.5136 31.8258ZM83.181 29.9374C83.6968 29.9374 84.1441 29.8356 84.5227 29.6321C84.9014 29.4239 85.1924 29.1494 85.3959 28.8086C85.6042 28.4678 85.7083 28.0963 85.7083 27.694V26.409C85.6278 26.4753 85.4906 26.5368 85.2965 26.5936C85.1072 26.6504 84.8943 26.7001 84.6576 26.7427C84.421 26.7853 84.1867 26.8232 83.9548 26.8563C83.7229 26.8894 83.5217 26.9178 83.3513 26.9415C82.968 26.9936 82.6249 27.0787 82.322 27.1971C82.0191 27.3154 81.78 27.481 81.6049 27.694C81.4298 27.9023 81.3423 28.172 81.3423 28.5033C81.3423 28.9766 81.515 29.3339 81.8605 29.5753C82.206 29.8167 82.6462 29.9374 83.181 29.9374ZM91.1688 31.6057V17.0664H96.7346C97.7853 17.0664 98.6585 17.2321 99.3542 17.5634C100.055 17.8899 100.578 18.3372 100.923 18.9051C101.273 19.4731 101.449 20.1167 101.449 20.8361C101.449 21.4277 101.335 21.9341 101.108 22.3554C100.881 22.7719 100.575 23.1103 100.192 23.3706C99.8086 23.6309 99.3803 23.8178 98.907 23.9314V24.0734C99.4229 24.1018 99.9174 24.2603 100.391 24.549C100.869 24.833 101.259 25.2353 101.562 25.7559C101.865 26.2765 102.016 26.906 102.016 27.6443C102.016 28.3968 101.834 29.0736 101.47 29.6747C101.105 30.2711 100.556 30.742 99.8228 31.0875C99.0892 31.433 98.1663 31.6057 97.0541 31.6057H91.1688ZM93.8026 29.4049H96.6352C97.5912 29.4049 98.2799 29.2227 98.7011 28.8583C99.1271 28.4891 99.34 28.0158 99.34 27.4384C99.34 27.0078 99.2335 26.6197 99.0206 26.2742C98.8076 25.9239 98.5047 25.6494 98.1119 25.4506C97.719 25.2471 97.2505 25.1454 96.7062 25.1454H93.8026V29.4049ZM93.8026 23.2499H96.408C96.8624 23.2499 97.2718 23.167 97.6362 23.0014C98.0006 22.831 98.287 22.592 98.4952 22.2844C98.7082 21.972 98.8147 21.6028 98.8147 21.1769C98.8147 20.6137 98.6159 20.1499 98.2184 19.7854C97.8255 19.421 97.241 19.2388 96.4648 19.2388H93.8026V23.2499ZM106.964 17.0664V31.6057H104.394V17.0664H106.964ZM114.563 31.8187C113.498 31.8187 112.575 31.5844 111.794 31.1159C111.014 30.6473 110.408 29.9918 109.977 29.1494C109.551 28.3069 109.338 27.3225 109.338 26.1961C109.338 25.0697 109.551 24.0829 109.977 23.2357C110.408 22.3885 111.014 21.7306 111.794 21.2621C112.575 20.7935 113.498 20.5593 114.563 20.5593C115.628 20.5593 116.551 20.7935 117.332 21.2621C118.113 21.7306 118.716 22.3885 119.142 23.2357C119.573 24.0829 119.788 25.0697 119.788 26.1961C119.788 27.3225 119.573 28.3069 119.142 29.1494C118.716 29.9918 118.113 30.6473 117.332 31.1159C116.551 31.5844 115.628 31.8187 114.563 31.8187ZM114.577 29.7599C115.155 29.7599 115.637 29.6014 116.026 29.2843C116.414 28.9624 116.702 28.5317 116.892 27.9922C117.086 27.4526 117.183 26.8516 117.183 26.189C117.183 25.5216 117.086 24.9182 116.892 24.3787C116.702 23.8344 116.414 23.4013 116.026 23.0795C115.637 22.7577 115.155 22.5967 114.577 22.5967C113.986 22.5967 113.494 22.7577 113.101 23.0795C112.713 23.4013 112.422 23.8344 112.227 24.3787C112.038 24.9182 111.944 25.5216 111.944 26.189C111.944 26.8516 112.038 27.4526 112.227 27.9922C112.422 28.5317 112.713 28.9624 113.101 29.2843C113.494 29.6014 113.986 29.7599 114.577 29.7599ZM126.926 31.8187C125.837 31.8187 124.903 31.5797 124.122 31.1017C123.345 30.6236 122.747 29.9634 122.326 29.121C121.909 28.2738 121.701 27.2988 121.701 26.1961C121.701 25.0886 121.914 24.1113 122.34 23.2641C122.766 22.4122 123.367 21.7496 124.143 21.2763C124.924 20.7983 125.847 20.5593 126.912 20.5593C127.797 20.5593 128.58 20.7225 129.262 21.0491C129.948 21.3709 130.494 21.8277 130.901 22.4193C131.308 23.0061 131.54 23.6924 131.597 24.478H129.141C129.041 23.9527 128.805 23.5149 128.431 23.1647C128.062 22.8097 127.567 22.6322 126.947 22.6322C126.422 22.6322 125.96 22.7742 125.563 23.0582C125.165 23.3374 124.855 23.7397 124.633 24.2651C124.415 24.7904 124.306 25.4199 124.306 26.1535C124.306 26.8965 124.415 27.5355 124.633 28.0703C124.851 28.6004 125.156 29.0097 125.549 29.2985C125.946 29.5824 126.412 29.7244 126.947 29.7244C127.326 29.7244 127.664 29.6534 127.962 29.5114C128.265 29.3647 128.518 29.1541 128.722 28.8796C128.926 28.6051 129.065 28.2714 129.141 27.8786H131.597C131.536 28.6501 131.308 29.3339 130.916 29.9303C130.523 30.5219 129.988 30.9857 129.311 31.3217C128.634 31.653 127.839 31.8187 126.926 31.8187ZM136.25 28.1839L136.243 25.0815H136.655L140.574 20.7012H143.577L138.756 26.0683H138.224L136.25 28.1839ZM133.907 31.6057V17.0664H136.477V31.6057H133.907ZM140.751 31.6057L137.201 26.6433L138.934 24.833L143.825 31.6057H140.751Z" fill="white"/>
</svg>
