<svg width="40" height="40" viewBox="0 0 40 40" fill="none" xmlns="http://www.w3.org/2000/svg">
<rect width="40" height="40" rx="7.34081" fill="#FAFAFA"/>
<path d="M31.9486 20.8183C31.9004 21.2533 31.5335 21.5828 31.0958 21.5838C31.0639 21.5838 31.032 21.5821 31.0001 21.5788C30.5282 21.5267 30.188 21.1023 30.2397 20.6303C30.4383 18.8347 30.1606 17.0182 29.4345 15.3638C28.7086 13.7094 27.5597 12.2754 26.1039 11.2057C24.6478 10.1362 22.9359 9.46855 21.14 9.27051L19.918 9.1355V9.13526C19.536 9.09329 19.2283 8.80289 19.1643 8.424C19.1005 8.04487 19.2957 7.66959 19.6427 7.50458L22.629 6.08372V6.08348C23.0577 5.87965 23.5707 6.0619 23.7745 6.49066C23.9786 6.91943 23.7963 7.43237 23.3676 7.63619L22.9261 7.84602C25.744 8.55248 28.2106 10.2558 29.8692 12.6408C31.528 15.0257 32.2665 17.9306 31.9485 20.8185L31.9486 20.8183ZM20.1029 29.8646L18.8809 29.7294C17.085 29.5313 15.373 28.8639 13.917 27.7942C12.4612 26.7247 11.3123 25.2905 10.5864 23.6361C9.86029 21.9817 9.58257 20.1654 9.78116 18.3696C9.80634 18.1427 9.74039 17.9154 9.59795 17.7372C9.45527 17.559 9.2476 17.4451 9.02099 17.4199C8.79414 17.395 8.56657 17.4614 8.38862 17.6041C8.21093 17.747 8.09702 17.9547 8.07232 18.1815C7.75411 21.0692 8.49294 23.9742 10.1516 26.3592C11.8104 28.7441 14.2769 30.4474 17.0948 31.1538L16.6533 31.3637C16.2245 31.5677 16.0423 32.0804 16.2463 32.5094C16.4502 32.9382 16.9631 33.1204 17.3919 32.9164L20.3782 31.4955C20.7251 31.3303 20.9203 30.955 20.8566 30.5761C20.7925 30.1972 20.4849 29.9066 20.1029 29.8646L20.1029 29.8646ZM28.5875 19.5003C28.5875 21.7751 27.6839 23.9568 26.0754 25.5654C24.4668 27.1737 22.2851 28.0775 20.0103 28.0775C17.7355 28.0775 15.5538 27.1737 13.9452 25.5654C12.3366 23.9568 11.433 21.7751 11.433 19.5003C11.433 17.2253 12.3366 15.0436 13.9452 13.4352C15.5538 11.8266 17.7355 10.9228 20.0103 10.9228C22.2841 10.9264 24.4636 11.8312 26.0715 13.4388C27.6793 15.0466 28.5841 17.2264 28.5875 19.5002L28.5875 19.5003ZM20.3884 18.7097V18.7094C20.3625 18.7051 20.3385 18.6931 20.3195 18.6751C19.2023 18.125 19.3054 17.85 19.3913 17.5924H19.3915C19.4973 17.2469 19.821 17.0147 20.1822 17.025H20.251C20.5941 17.0222 20.9059 17.2253 21.0416 17.5406C21.1234 17.754 21.2874 17.9255 21.4968 18.0166C21.7061 18.108 21.9435 18.1113 22.1553 18.026C22.3673 17.9408 22.5361 17.7742 22.6241 17.5634C22.7119 17.3526 22.7116 17.1152 22.6229 16.9047C22.3466 16.2018 21.7642 15.6634 21.0416 15.4438V14.8592C21.0438 14.6306 20.9541 14.4107 20.7925 14.2491C20.6306 14.0875 20.4107 13.9976 20.1822 13.9997C19.7081 14.0012 19.3241 14.3851 19.3227 14.8592V15.4608C18.58 15.7105 17.9997 16.297 17.7585 17.0423C17.1053 19.0363 19.0134 19.9643 19.6321 20.2566C19.6492 20.2739 19.6837 20.2739 19.7009 20.2909C20.8354 20.841 21.1105 21.0988 20.9901 21.5458C20.9213 21.8551 20.5261 21.9755 20.2165 22.0098H20.1477C19.9175 22.034 19.6851 21.9918 19.4782 21.8882C19.271 21.7846 19.0978 21.6239 18.9789 21.4254C18.894 21.2141 18.7278 21.0463 18.5178 20.959C18.3075 20.8717 18.0712 20.8724 17.8616 20.9611C17.4242 21.141 17.2106 21.6371 17.3803 22.0786C17.7285 22.8865 18.4573 23.467 19.3228 23.6255V23.9179V23.9176C19.3242 24.3917 19.7081 24.7758 20.1822 24.7771C20.4108 24.7795 20.6306 24.6895 20.7923 24.5279C20.9541 24.3663 21.0438 24.1464 21.0417 23.9176V23.5737V23.574C21.4347 23.4723 21.7934 23.267 22.0807 22.98C22.3678 22.6929 22.5728 22.3342 22.6745 21.9409C23.1215 20.0331 21.351 19.1736 20.3885 18.7093L20.3884 18.7097Z" fill="#2B63FF"/>
</svg>
