<svg width="40" height="40" viewBox="0 0 40 40" fill="none" xmlns="http://www.w3.org/2000/svg">
<rect width="40" height="40" rx="7.34081" fill="#FAFAFA"/>
<path fill-rule="evenodd" clip-rule="evenodd" d="M5.968 9.1033V9.00057L5.97897 9.00049L5.968 9.1033ZM2.70308 30.3912H6.10352e-05C0.0409959 30.3953 0.0822765 30.3974 0.123758 30.3974H2.57938C2.62086 30.3974 2.66214 30.3953 2.70308 30.3912ZM14.2289 9.33825L17.083 11.384L17.0829 11.3957C17.2447 11.5107 17.3408 11.6969 17.3408 11.8955C17.3408 12.094 17.2447 12.2803 17.0829 12.3952H17.0827L14.2327 14.4409C14.0451 14.5755 13.7981 14.5937 13.5925 14.4886C13.3869 14.3835 13.2575 14.1721 13.2567 13.9412V13.4102H10.1764C9.76242 13.4102 9.42691 13.0747 9.42691 12.6607V11.1343C9.42691 10.7201 9.76242 10.3845 10.1764 10.3845H13.2567V9.8535C13.2526 9.6212 13.3793 9.40634 13.5846 9.2974C13.7899 9.18875 14.0391 9.20427 14.2289 9.33825ZM14.2289 16.5413L17.083 18.5871L17.0829 18.5832C17.2447 18.6982 17.3408 18.8844 17.3408 19.083C17.3408 19.2815 17.2447 19.4678 17.0829 19.5827H17.0827L14.2327 21.6284C14.0451 21.7627 13.7981 21.7812 13.5925 21.6758C13.3869 21.5707 13.2575 21.3596 13.2567 21.1287V20.5977H10.1764C9.76242 20.5977 9.42691 20.2622 9.42691 19.8482V18.3216C9.42691 17.9076 9.76242 17.5721 10.1764 17.5721H13.2567V17.0411C13.2583 16.8115 13.3874 16.6018 13.5917 16.497C13.7956 16.3921 14.0413 16.4093 14.2289 16.5413ZM14.2289 23.7444L17.083 25.7902L17.0829 25.7981C17.2447 25.913 17.3408 26.0993 17.3408 26.2978C17.3408 26.4963 17.2447 26.6826 17.0829 26.7975H17.0827L14.2327 28.8433C14.0451 28.9776 13.7981 28.9961 13.5925 28.8907C13.3869 28.7856 13.2575 28.5745 13.2567 28.3436V27.8125H10.1764C9.97564 27.8125 9.78311 27.7319 9.64232 27.5889C9.50125 27.4457 9.42364 27.2521 9.42691 27.0511V25.5247C9.42691 25.1107 9.76242 24.7752 10.1764 24.7752H13.2567V24.2442C13.2583 24.0146 13.3874 23.8049 13.5917 23.7C13.7956 23.5952 14.0413 23.6121 14.2289 23.7444ZM24.7783 17.1621C25.4457 17.4208 26.0974 17.718 26.7303 18.0524C27.8705 18.6679 28.6764 19.7602 28.9283 21.0311C29.154 22.2222 28.8362 23.4521 28.0614 24.3848C27.4699 25.1068 26.6649 25.6234 25.7622 25.8606C25.4926 25.9347 25.4302 26.0204 25.4302 26.2822V27.0629V27.4534C25.4441 27.6645 25.3665 27.8715 25.2167 28.021C25.0672 28.1705 24.8605 28.2484 24.6494 28.2342H23.4C23.1846 28.2347 22.9784 28.146 22.8305 27.9894C22.6829 27.8325 22.6064 27.6217 22.6192 27.4066V26.5673C22.6241 26.4363 22.6135 26.3053 22.5879 26.1767C22.4686 26.1386 22.3455 26.1125 22.2211 26.0986C21.4343 25.9927 20.6674 25.7715 19.945 25.4428L19.9447 25.4431C19.2889 25.1228 19.168 24.8611 19.3592 24.1585C19.4763 23.729 19.5975 23.2996 19.7301 22.8739C19.8004 22.6514 19.9447 22.2375 20.3352 22.2375C20.5152 22.2503 20.6895 22.3066 20.8428 22.4014C21.5749 22.775 22.3684 23.0131 23.1855 23.1043C23.6816 23.1735 24.1876 23.1073 24.6495 22.9129C25.0008 22.7927 25.2538 22.4845 25.3034 22.1166C25.3532 21.7489 25.1906 21.3845 24.8837 21.1757C24.6263 20.9739 24.3426 20.8083 24.0403 20.6836V20.6838C23.8613 20.6063 23.6823 20.5342 23.5045 20.4627C23.4225 20.4297 23.3408 20.3968 23.2595 20.3636C22.6547 20.1381 22.0686 19.8652 21.5065 19.5477C19.9801 18.6381 19.2851 17.451 19.3788 15.9246C19.488 14.1365 20.464 12.899 22.2755 12.2392C22.7753 12.0597 22.7753 12.0597 22.7753 11.56V11.31V10.8454C22.7949 10.1738 22.9901 9.97472 23.6576 9.95512H24.2785C25.4419 9.95512 25.5318 10.1621 25.5318 11.3334C25.5318 11.8955 25.5318 11.8955 26.0939 11.9854C26.7132 12.0848 27.3169 12.2645 27.8899 12.5202C28.2919 12.6638 28.504 13.1038 28.3662 13.508V13.5082L28.2491 13.9181L28.2457 13.9301C28.1491 14.2736 28.0526 14.6168 27.9406 14.9565C27.9381 14.964 27.9355 14.9718 27.9329 14.9798C27.8444 15.2481 27.6623 15.8003 26.8474 15.4211C26.0345 15.026 25.1336 14.8473 24.2317 14.9018C24.0122 14.9051 23.7951 14.9486 23.5914 15.0306C23.3057 15.1335 23.0963 15.3803 23.0408 15.6787C23.0179 15.9717 23.1516 16.2555 23.3923 16.4244C23.7363 16.6877 24.1162 16.9007 24.5206 17.0567L24.7783 17.1621Z" fill="#2B63FF"/>
</svg>
