<svg width="40" height="40" viewBox="0 0 40 40" fill="none" xmlns="http://www.w3.org/2000/svg">
<rect width="40" height="40" rx="7.34081" fill="#FAFAFA"/>
<path d="M25.2164 10.4227H15.824L17.3174 8.92929L16.3881 8L13.899 10.4892C9.45171 11.0202 6 14.8038 6 19.3838V19.5829C6 24.5281 10.016 28.5439 14.961 28.5439H24.3867L22.8599 30.0707L23.7891 31L26.3114 28.4777C30.7587 27.9466 34.1772 24.1631 34.1772 19.5831V19.384C34.1777 14.4385 30.1617 10.423 25.2168 10.423L25.2164 10.4227ZM32.8499 19.5829C32.8499 23.4328 29.9956 26.5857 26.3117 27.1499L23.7561 24.5943L22.8268 25.5236L24.5194 27.2162L14.9278 27.2164C10.7127 27.2164 7.29431 23.798 7.29431 19.583V19.3839C7.29431 15.5673 10.1155 12.381 13.7993 11.8168L16.3549 14.3724L17.2842 13.4431L15.5917 11.7506H25.2164C29.4315 11.7506 32.8499 15.169 32.8499 19.384V19.5829Z" fill="#2B63FF"/>
<path opacity="0.5" d="M19.2816 22.0192L19.1088 14.92H20.7504L20.5776 22.0192H19.2816ZM19.9728 25.0864C19.6752 25.0864 19.4304 24.9952 19.2384 24.8128C19.056 24.6208 18.9648 24.3952 18.9648 24.136C18.9648 23.8672 19.056 23.6416 19.2384 23.4592C19.4304 23.2672 19.6752 23.1712 19.9728 23.1712C20.2512 23.1712 20.4816 23.2672 20.664 23.4592C20.856 23.6416 20.952 23.8672 20.952 24.136C20.952 24.3952 20.856 24.6208 20.664 24.8128C20.4816 24.9952 20.2512 25.0864 19.9728 25.0864Z" fill="#2B63FF"/>
</svg>
