<svg width="40" height="40" viewBox="0 0 40 40" fill="none" xmlns="http://www.w3.org/2000/svg">
<rect width="40" height="40" rx="7.34081" fill="#FAFAFA"/>
<path d="M18.0239 16.8151C18.0239 16.8151 17.5783 17.1022 17.6982 17.4683C17.8976 18.077 18.6754 17.6323 18.6754 17.6323L18.7002 16.7861H18.0245L18.0242 16.8151L18.0239 16.8151Z" fill="#2B63FF"/>
<path d="M17.3729 20.0811C15.2905 19.4554 15.3507 17.3382 15.4034 16.7865H9.77087V14.7266C9.77087 12.2425 11.7895 10.2294 14.2803 10.2294C16.6428 10.2294 18.5793 12.0413 18.772 14.3482L18.8386 12.0814H20.462C19.4299 9.68033 17.0507 8 14.2798 8C10.5621 8 7.54844 11.0238 7.54844 14.7544V16.8066C6.1146 16.9698 5 18.1899 5 19.672V29.1144C5 30.7082 6.28766 32 7.87592 32H20.6836C22.2719 32 23.5589 30.7082 23.5589 29.1144V26.233L18.6755 20.2443C18.6755 20.2443 18.0279 20.2779 17.3727 20.0809L17.3729 20.0811ZM15.6528 23.6985V27.3437C15.6528 28.1045 15.0382 28.7211 14.2803 28.7211C13.5225 28.7211 12.9079 28.1044 12.9079 27.3437V23.6985C12.5456 23.3415 12.3202 22.8448 12.3202 22.2942C12.3202 21.2076 13.1979 20.327 14.2809 20.327C15.3636 20.327 16.2413 21.208 16.2413 22.2942C16.2404 22.8447 16.0147 23.3418 15.6527 23.6985H15.6528Z" fill="#2B63FF"/>
<path opacity="0.5" d="M27.2081 13.1372L19.4147 12.4062L19.1363 17.5543C20.0862 17.1552 20.7789 16.2944 20.986 16.0143C20.743 15.4614 20.8813 14.7915 21.3681 14.3866C21.9561 13.8974 22.8289 13.9793 23.3162 14.5693C23.8042 15.1591 23.7224 16.0338 23.1338 16.5231C23.1215 16.5336 23.1084 16.5421 23.0958 16.5514C21.7026 18.773 19.8766 19.6525 19.0378 19.9559L26.817 29.3662L34.9997 22.5635L27.2081 13.1372Z" fill="#2B63FF"/>
<path d="M17.3628 17.9292C16.8012 17.2495 18.35 15.8366 18.35 15.8366V14.0405C15.7176 15.5194 15.0214 18.4073 16.6863 19.3403C19.9285 21.1561 22.7386 16.4293 22.7386 16.4293L22.7108 16.4088C22.786 16.3723 22.8591 16.3293 22.9266 16.2735C23.3763 15.8992 23.4392 15.2302 23.0658 14.7791C22.6933 14.3279 22.0264 14.2651 21.5758 14.6396C21.1463 14.9972 21.075 15.6217 21.394 16.0702L21.3846 16.0705C19.2014 18.6263 17.9254 18.6096 17.3629 17.9292L17.3628 17.9292Z" fill="#2B63FF"/>
</svg>
