<svg width="40" height="40" viewBox="0 0 40 40" fill="none" xmlns="http://www.w3.org/2000/svg">
<rect width="40" height="40" rx="7.34081" fill="#FAFAFA"/>
<path d="M29.8416 9H14.7887C14.1483 9 13.6301 9.51817 13.6301 10.1586V25.2115C13.6301 25.8519 14.1483 26.3701 14.7887 26.3701H29.8416C30.482 26.3701 31.0002 25.8519 31.0002 25.2115V10.1586C31.0002 9.51817 30.482 9 29.8416 9ZM28.6854 24.0529H15.9473V11.3148H28.6854V24.0529Z" fill="#2B63FF"/>
<path d="M10.1585 30.9998H27.5262V28.685H11.3148V13.3999H9V29.8413C9 30.4817 9.51817 30.9999 10.1586 30.9999L10.1585 30.9998Z" fill="#2B63FF"/>
<path opacity="0.5" d="M27.4264 15.1383L25.7887 13.5005L21.1587 18.1301L18.8414 15.8152L17.2037 17.453L21.1586 21.4056L27.4264 15.1383Z" fill="#2B63FF"/>
</svg>
