<svg width="40" height="40" viewBox="0 0 40 40" fill="none" xmlns="http://www.w3.org/2000/svg">
<rect opacity="0.5" width="40" height="40" rx="7.34081" fill="#FAFAFA"/>
<g opacity="0.5">
<path d="M17.503 20.5437C22.6387 20.5437 27.8364 18.8086 27.8364 15.4922C27.8364 12.1759 22.6387 10.4407 17.503 10.4407C12.3674 10.4407 7.16971 12.1759 7.16971 15.4922C7.16971 18.8086 12.3674 20.5437 17.503 20.5437Z" fill="#2B63FF"/>
<path d="M7.16971 20.6803C7.16971 23.9966 12.3674 25.7318 17.503 25.7318C22.6387 25.7318 27.8364 23.9966 27.8364 20.6803V18.1545C27.8364 21.4709 22.6387 23.206 17.503 23.206C12.3674 23.206 7.16971 21.4709 7.16971 18.1545V20.6803Z" fill="#2B63FF"/>
<path d="M7.16971 25.7303C7.16971 29.0466 12.3674 30.7818 17.503 30.7818C22.6387 30.7818 27.8364 29.0466 27.8364 25.7303V23.2045C27.8364 26.5208 22.6387 28.256 17.503 28.256C12.3674 28.256 7.16971 26.5208 7.16971 23.2045V25.7303Z" fill="#2B63FF"/>
</g>
<path d="M23.503 21.5437C28.6387 21.5437 33.8364 19.8086 33.8364 16.4922C33.8364 13.1759 28.6387 11.4407 23.503 11.4407C18.3674 11.4407 13.1697 13.1759 13.1697 16.4922C13.1697 19.8086 18.3674 21.5437 23.503 21.5437Z" fill="#2B63FF"/>
<path d="M13.1697 21.6803C13.1697 24.9966 18.3674 26.7318 23.503 26.7318C28.6387 26.7318 33.8364 24.9966 33.8364 21.6803V19.1545C33.8364 22.4709 28.6387 24.206 23.503 24.206C18.3674 24.206 13.1697 22.4709 13.1697 19.1545V21.6803Z" fill="#2B63FF"/>
<path d="M13.1697 26.7303C13.1697 30.0466 18.3674 31.7818 23.503 31.7818C28.6387 31.7818 33.8364 30.0466 33.8364 26.7303V24.2045C33.8364 27.5208 28.6387 29.256 23.503 29.256C18.3674 29.256 13.1697 27.5208 13.1697 24.2045V26.7303Z" fill="#2B63FF"/>
</svg>
