<svg width="40" height="40" viewBox="0 0 40 40" fill="none" xmlns="http://www.w3.org/2000/svg">
<rect opacity="0.5" width="40" height="40" rx="7.34081" fill="#FAFAFA"/>
<path d="M30.0417 20.2421V22.116C30.0417 25.2211 25.3219 27.7378 19.5001 27.7378C13.7817 27.7378 9.12706 25.3101 8.96318 22.2818L8.95839 22.116V20.2421C8.95839 23.3472 13.6782 25.8639 19.5001 25.8639C25.3219 25.8639 30.0417 23.3472 30.0417 20.2421ZM19.5001 12.7463C25.3219 12.7463 30.0417 15.263 30.0417 18.3681C30.0417 21.4732 25.3219 23.9899 19.5001 23.9899C13.6782 23.9899 8.95839 21.4732 8.95839 18.3681C8.95839 15.263 13.6782 12.7463 19.5001 12.7463Z" fill="#2B63FF"/>
</svg>
