<svg width="40" height="40" viewBox="0 0 40 40" fill="none" xmlns="http://www.w3.org/2000/svg">
<rect opacity="0.5" width="40" height="40" rx="7.34081" fill="#FAFAFA"/>
<path d="M25.75 17.4167H16.375V14.2917C16.375 12.5688 17.7771 11.1667 19.5 11.1667C21.2229 11.1667 22.625 12.5688 22.625 14.2917H24.7084C24.7084 11.4198 22.3719 9.08337 19.5 9.08337C16.6281 9.08337 14.2917 11.4198 14.2917 14.2917V17.4167H13.25C12.6975 17.4167 12.1676 17.6362 11.7769 18.0269C11.3862 18.4176 11.1667 18.9475 11.1667 19.5V27.8334C11.1667 28.3859 11.3862 28.9158 11.7769 29.3065C12.1676 29.6972 12.6975 29.9167 13.25 29.9167H25.75C26.3026 29.9167 26.8325 29.6972 27.2232 29.3065C27.6139 28.9158 27.8334 28.3859 27.8334 27.8334V19.5C27.8334 18.9475 27.6139 18.4176 27.2232 18.0269C26.8325 17.6362 26.3026 17.4167 25.75 17.4167ZM17.4802 23.1448C17.6083 22.6547 17.9104 22.2279 18.3301 21.9441C18.7498 21.6604 19.2585 21.5392 19.7611 21.6031C20.2636 21.6671 20.7258 21.9117 21.0611 22.2915C21.3965 22.6712 21.5821 23.1601 21.5834 23.6667C21.5828 24.031 21.4862 24.3887 21.3033 24.7038C21.1204 25.0189 20.8577 25.2803 20.5417 25.4615V27.8334H18.4584V25.4615C18.0642 25.2357 17.7551 24.8867 17.5784 24.4682C17.4017 24.0497 17.3672 23.5848 17.4802 23.1448Z" fill="#2B63FF"/>
</svg>
