<svg width="40" height="40" viewBox="0 0 40 40" fill="none" xmlns="http://www.w3.org/2000/svg">
<rect opacity="0.5" width="40" height="40" rx="7.34081" fill="#FAFAFA"/>
<path d="M20 16L17 17.75V21.25L20 23L23 21.25V17.75L20 16ZM21.517 18.04L19.987 18.932L18.47 18.047L20 17.155L21.517 18.04ZM17.99 18.922L19.474 19.788V21.538L17.99 20.673V18.922ZM20.464 21.575V19.808L22.01 18.906V20.673L20.464 21.575ZM11 8L8 9.75V13.25L11 15L14 13.25V9.75L11 8ZM12.517 10.04L10.987 10.932L9.47 10.047L11 9.155L12.517 10.04ZM8.99 10.921L10.474 11.787V13.537L8.99 12.674V10.921ZM11.464 13.574V11.808L13.01 10.906V12.673L11.464 13.574ZM11 25L8 26.75V30.25L11 32L14 30.25V26.75L11 25ZM12.517 27.04L10.987 27.932L9.47 27.047L11 26.155L12.517 27.04ZM8.99 27.922L10.474 28.788V30.538L8.99 29.674V27.922ZM11.464 30.575V28.808L13.01 27.906V29.673L11.464 30.575ZM29 8L26 9.75V13.25L29 15L32 13.25V9.75L29 8ZM30.517 10.04L28.987 10.932L27.47 10.047L29 9.155L30.517 10.04ZM26.99 10.922L28.474 11.788V13.538L26.99 12.673V10.922ZM29.464 13.575V11.808L31.01 10.906V12.673L29.464 13.575ZM29 25L26 26.75V30.25L29 32L32 30.25V26.75L29 25ZM30.517 27.04L28.987 27.932L27.47 27.047L29 26.155L30.517 27.04ZM26.99 27.922L28.474 28.788V30.538L26.99 29.673V27.922ZM29.464 30.575V28.808L31.01 27.906V29.673L29.464 30.575ZM17 11H23V12H17V11ZM17 28H23V29H17V28ZM11.5 17V23H10.5V17H11.5ZM15.293 16.828L13.172 14.707L13.879 14L16 16.12L15.293 16.828ZM24 16.293L26.121 14.172L26.828 14.879L24.707 17L24 16.293ZM16.128 22.879L14.007 25L13.3 24.293L15.421 22.172L16.128 22.879ZM24.879 22.129L27 24.25L26.293 24.957L24.172 22.836L24.879 22.129ZM29.5 17V23H28.5V17H29.5Z" fill="#2B63FF"/>
</svg>
