<svg width="40" height="40" viewBox="0 0 40 40" fill="none" xmlns="http://www.w3.org/2000/svg">
<rect opacity="0.5" width="40" height="40" rx="7.34081" fill="#FAFAFA"/>
<path fill-rule="evenodd" clip-rule="evenodd" d="M17.7671 20.1888V20.2476C17.8553 20.7767 17.5029 21.2763 16.9741 21.335L11.4193 22.1579C10.5964 22.2754 9.92037 21.5996 10.0086 20.806L10.714 15.1044C10.7726 14.6047 11.2429 14.2226 11.7719 14.2815C12.3302 14.3696 12.683 14.84 12.6242 15.3689L12.1834 18.7488L20.618 10.2844C21.0001 9.90228 21.6173 9.90227 21.9994 10.2844C22.3815 10.6665 22.3815 11.2837 21.9994 11.6658L13.8581 19.8066L16.6796 19.3952C17.2088 19.307 17.6789 19.6598 17.7671 20.1888Z" fill="#2B63FF"/>
<path opacity="0.5" fill-rule="evenodd" clip-rule="evenodd" d="M24.6244 18.0295L24.625 17.9706C24.5424 17.4407 24.9 16.9447 25.4293 16.8916L30.9924 16.1266C31.8165 16.0176 32.4854 16.7005 32.389 17.4931L31.6242 23.1871C31.5603 23.6861 31.086 24.0633 30.5577 23.9989C30.0003 23.9049 29.6525 23.431 29.7168 22.9026L30.1928 19.5276L21.6705 27.9036C21.2844 28.2817 20.6672 28.2753 20.2891 27.8892C19.911 27.5031 19.9174 26.886 20.3035 26.5079L28.5292 18.4523L25.7036 18.8343C25.1735 18.917 24.7071 18.5593 24.6244 18.0295Z" fill="#2B63FF"/>
</svg>
